<svg width="24" height="24" viewBox="0 0 24 24" fill="none" xmlns="http://www.w3.org/2000/svg">
<path d="M9 9H7V11H9V9Z" fill="#333333"/>
<path d="M17 9H15V11H17V9Z" fill="#333333"/>
<path d="M7 13H9V15H7V13Z" fill="#333333"/>
<path d="M13 9H11V11H13V9Z" fill="#333333"/>
<path d="M11 13H13V15H11V13Z" fill="#333333"/>
<path d="M17 13H15V15H17V13Z" fill="#333333"/>
<path fill-rule="evenodd" clip-rule="evenodd" d="M15 2H17V4H20C21.1 4 22 4.9 22 6V18C22 19.1 21.1 20 20 20H4C2.9 20 2 19.1 2 18V6C2 4.9 2.9 4 4 4H7V2H9V4H15V2ZM4 18V6H20V18H4Z" fill="#333333"/>
</svg>
