<svg width="24" height="24" viewBox="0 0 24 24" fill="none" xmlns="http://www.w3.org/2000/svg">
<path fill-rule="evenodd" clip-rule="evenodd" d="M18 2H6C4.9 2 4 2.9 4 4V20C4 21.1 4.9 22 6 22H18C19.1 22 20 21.1 20 20V4C20 2.9 19.1 2 18 2ZM18 4V20H6V4H18Z" fill="#333333"/>
<path fill-rule="evenodd" clip-rule="evenodd" d="M12 10C12.5523 10 13 9.55228 13 9C13 8.44772 12.5523 8 12 8C11.4477 8 11 8.44772 11 9C11 9.55228 11.4477 10 12 10ZM12 12C13.6569 12 15 10.6569 15 9C15 7.34315 13.6569 6 12 6C10.3431 6 9 7.34315 9 9C9 10.6569 10.3431 12 12 12Z" fill="#333333"/>
<path fill-rule="evenodd" clip-rule="evenodd" d="M7 16C7 13.2386 9.23858 11 12 11C14.7614 11 17 13.2386 17 16V18H15V16C15 14.3431 13.6569 13 12 13C10.3431 13 9 14.3431 9 16V18H7V16Z" fill="#333333"/>
</svg>
