<svg width="24" height="24" viewBox="0 0 24 24" fill="none" xmlns="http://www.w3.org/2000/svg">
<path d="M13.5607 19L14.2307 21H9.78073L10.4507 19H13.5707M15.0107 17H9.01074L7.01074 23H17.0107L15.0107 17Z" fill="#333333"/>
<path d="M12 3C15.86 3 19 6.14 19 10C19 13.86 15.86 17 12 17C8.14 17 5 13.86 5 10C5 6.14 8.14 3 12 3ZM12 1C7.03 1 3 5.03 3 10C3 14.97 7.03 19 12 19C16.97 19 21 14.97 21 10C21 5.03 16.97 1 12 1Z" fill="#333333"/>
<path d="M12 9C12.55 9 13 9.45 13 10C13 10.55 12.55 11 12 11C11.45 11 11 10.55 11 10C11 9.45 11.45 9 12 9ZM12 7C10.34 7 9 8.34 9 10C9 11.66 10.34 13 12 13C13.66 13 15 11.66 15 10C15 8.34 13.66 7 12 7Z" fill="#333333"/>
</svg>
