<svg width="24" height="24" viewBox="0 0 24 24" fill="none" xmlns="http://www.w3.org/2000/svg">
<path d="M11.9998 4C16.4098 4 19.9998 7.59 19.9998 12C19.9998 16.41 16.4098 20 11.9998 20H5.99977L6.12977 19.83L7.10977 18.52L6.02977 17.3C4.72977 15.83 4.00977 13.95 4.00977 12C4.00977 7.59 7.59977 4 12.0098 4M12.0098 2C6.48977 2 2.00977 6.48 2.00977 12C2.00977 14.55 2.96977 16.86 4.53977 18.63L2.00977 22H11.9998C17.5198 22 21.9998 17.52 21.9998 12C21.9998 6.48 17.5198 2 11.9998 2H12.0098Z" fill="#333333"/>
<path d="M14 13H8V15H14V13Z" fill="#333333"/>
<path d="M16 9H8V11H16V9Z" fill="#333333"/>
</svg>
