<svg width="24" height="24" viewBox="0 0 24 24" fill="none" xmlns="http://www.w3.org/2000/svg">
<path d="M7.27738 12.1739L6.26953 13.9014L14.8206 18.8902L15.8285 17.1627L7.27738 12.1739Z" fill="#333333"/>
<path d="M14.8037 5.19335L6.25 10.1777L7.25694 11.9058L15.8107 6.92137L14.8037 5.19335Z" fill="#333333"/>
<path d="M17.0107 8C15.3607 8 14.0107 6.65 14.0107 5C14.0107 3.35 15.3607 2 17.0107 2C18.6607 2 20.0107 3.35 20.0107 5C20.0107 6.65 18.6607 8 17.0107 8ZM17.0107 4C16.4607 4 16.0107 4.45 16.0107 5C16.0107 5.55 16.4607 6 17.0107 6C17.5607 6 18.0107 5.55 18.0107 5C18.0107 4.45 17.5607 4 17.0107 4Z" fill="#333333"/>
<path d="M4.94043 15C3.29043 15 1.94043 13.65 1.94043 12C1.94043 10.35 3.29043 9 4.94043 9C6.59043 9 7.94043 10.35 7.94043 12C7.94043 13.65 6.59043 15 4.94043 15ZM4.94043 11C4.39043 11 3.94043 11.45 3.94043 12C3.94043 12.55 4.39043 13 4.94043 13C5.49043 13 5.94043 12.55 5.94043 12C5.94043 11.45 5.49043 11 4.94043 11Z" fill="#333333"/>
<path d="M17.0107 22C15.3607 22 14.0107 20.65 14.0107 19C14.0107 17.35 15.3607 16 17.0107 16C18.6607 16 20.0107 17.35 20.0107 19C20.0107 20.65 18.6607 22 17.0107 22ZM17.0107 18C16.4607 18 16.0107 18.45 16.0107 19C16.0107 19.55 16.4607 20 17.0107 20C17.5607 20 18.0107 19.55 18.0107 19C18.0107 18.45 17.5607 18 17.0107 18Z" fill="#333333"/>
</svg>
