<svg width="24" height="24" viewBox="0 0 24 24" fill="none" xmlns="http://www.w3.org/2000/svg">
<path d="M12.0008 2.99977C15.3108 2.99977 18.0008 5.68977 18.0008 8.99977C18.0008 11.1298 16.8509 13.1198 14.9909 14.1998L13.9909 14.7798V21.0098H9.99085V14.7698L9.0008 14.1898C6.8408 12.9298 5.69082 10.5098 6.08082 8.02977C6.49082 5.42977 8.69086 3.33977 11.3109 3.04977C11.5409 3.01977 11.7708 3.00977 12.0008 3.00977M12.0008 1.00977C11.7008 1.00977 11.4008 1.02977 11.0908 1.05977C7.57083 1.44977 4.65084 4.22977 4.10084 7.71977C3.56084 11.1998 5.26085 14.3398 7.99085 15.9198V21.0098C7.99085 22.1098 8.89085 23.0098 9.99085 23.0098H13.9909C15.0909 23.0098 15.9909 22.1098 15.9909 21.0098V15.9398C18.3909 14.5598 20.0008 11.9798 20.0008 9.00977C20.0008 4.58977 16.4208 1.00977 12.0008 1.00977Z" fill="#333333"/>
<path d="M14 17H10V19H14V17Z" fill="#333333"/>
</svg>
