<svg width="24" height="24" viewBox="0 0 24 24" fill="none" xmlns="http://www.w3.org/2000/svg">
<path d="M12 3C13.65 3 15 4.35 15 6V11C15 12.65 13.65 14 12 14C10.35 14 9 12.65 9 11V6C9 4.35 10.35 3 12 3ZM12 1C9.24 1 7 3.24 7 6V11C7 13.76 9.24 16 12 16C14.76 16 17 13.76 17 11V6C17 3.24 14.76 1 12 1Z" fill="#333333"/>
<path d="M13 18.5H11V23H13V18.5Z" fill="#333333"/>
<path d="M12 20C7.04 20 3 15.96 3 11V9H5V11C5 14.86 8.14 18 12 18C15.86 18 19 14.86 19 11V9H21V11C21 15.96 16.96 20 12 20Z" fill="#333333"/>
</svg>
