<svg width="24" height="24" viewBox="0 0 24 24" fill="none" xmlns="http://www.w3.org/2000/svg">
<path d="M18 4V20H6V4H18ZM18 2H6C4.9 2 4 2.9 4 4V20C4 21.1 4.9 22 6 22H18C19.1 22 20 21.1 20 20V4C20 2.9 19.1 2 18 2Z" fill="#333333"/>
<path d="M16 6H8V8H16V6Z" fill="#333333"/>
<path d="M10 10H8V12H10V10Z" fill="#333333"/>
<path d="M13 10H11V12H13V10Z" fill="#333333"/>
<path d="M16 10H14V12H16V10Z" fill="#333333"/>
<path d="M10 13H8V15H10V13Z" fill="#333333"/>
<path d="M13 13H11V15H13V13Z" fill="#333333"/>
<path d="M16 13H14V15H16V13Z" fill="#333333"/>
<path d="M10 16H8V18H10V16Z" fill="#333333"/>
<path d="M13 16H11V18H13V16Z" fill="#333333"/>
<path d="M16 16H14V18H16V16Z" fill="#333333"/>
</svg>
