<svg width="24" height="24" viewBox="0 0 24 24" fill="none" xmlns="http://www.w3.org/2000/svg">
<path d="M7 8V12H4V8H7ZM9 6H4C2.9 6 2 6.9 2 8V12C2 13.1 2.9 14 4 14H9V6Z" fill="#333333"/>
<path d="M6 14H4V21H6V14Z" fill="#333333"/>
<path d="M19 9C19.55 9 20 9.45 20 10C20 10.55 19.55 11 19 11V9ZM19 7H17V13H19C20.66 13 22 11.66 22 10C22 8.34 20.66 7 19 7Z" fill="#333333"/>
<path d="M17.0002 4.00004V16L9.00018 12.67V7.34004L17.0002 4.01004M18.4502 1.29004C18.3802 1.29004 18.3002 1.30004 18.2202 1.34004L6.99023 6.02004V14.02L18.2202 18.7C18.2902 18.73 18.3702 18.75 18.4502 18.75C18.7402 18.75 19.0002 18.54 19.0002 18.25V1.80004C19.0002 1.51004 18.7402 1.30004 18.4502 1.30004V1.29004Z" fill="#333333"/>
</svg>
