<svg width="24" height="24" viewBox="0 0 24 24" fill="none" xmlns="http://www.w3.org/2000/svg">
<path d="M11.5 17C9.02 17 7 14.76 7 12C7 9.24 9.02 7 11.5 7C13.98 7 16 9.24 16 12C16 14.76 13.98 17 11.5 17ZM11.5 9C10.12 9 9 10.35 9 12C9 13.65 10.12 15 11.5 15C12.88 15 14 13.65 14 12C14 10.35 12.88 9 11.5 9Z" fill="#333333"/>
<path d="M12 2C6.49 2 2 6.49 2 12C2 17.51 6.49 22 12 22C13.4 22 14.74 21.7 16 21.15V18.95L15.55 19.17C14.44 19.72 13.24 20 12 20C7.59 20 4 16.41 4 12C4 7.59 7.59 4 12 4C16.41 4 20 7.59 20 12V13C20 14.1 19.1 15 18 15C16.9 15 16 14.1 16 13V7H14V13C14 15.21 15.79 17 18 17C20.21 17 22 15.21 22 13V12C22 6.49 17.51 2 12 2Z" fill="#333333"/>
</svg>
