<svg width="24" height="24" viewBox="0 0 24 24" fill="none" xmlns="http://www.w3.org/2000/svg">
<path d="M16 3V11C16 13.21 14.21 15 12 15C9.79 15 8 13.21 8 11V3H16ZM16 1H8C6.9 1 6 1.9 6 3V11C6 14.31 8.69 17 12 17C15.31 17 18 14.31 18 11V3C18 1.9 17.1 1 16 1Z" fill="#333333"/>
<path d="M13 16H11V22H13V16Z" fill="#333333"/>
<path d="M20 6V9C20 10.1 19.1 11 18 11V6H20ZM20 4H16V13H18C20.21 13 22 11.21 22 9V6C22 4.9 21.1 4 20 4Z" fill="#333333"/>
<path d="M6 6V11C4.9 11 4 10.1 4 9V6H6ZM8 4H4C2.9 4 2 4.9 2 6V9C2 11.21 3.79 13 6 13H8V4Z" fill="#333333"/>
<path d="M8 20H16C16.55 20 17 20.45 17 21V22H7V21C7 20.45 7.45 20 8 20Z" fill="#333333"/>
</svg>
