<svg width="24" height="24" viewBox="0 0 24 24" fill="none" xmlns="http://www.w3.org/2000/svg">
<path fill-rule="evenodd" clip-rule="evenodd" d="M6 10C5.45228 10 5 10.4523 5 11V19C5 19.5477 5.45228 20 6 20H8V22H6C4.34772 22 3 20.6523 3 19V11C3 9.34772 4.34772 8 6 8H8V10H6Z" fill="#333333"/>
<path d="M14.54 2.99976C15.27 2.99976 15.61 3.49979 15.72 3.71979C15.83 3.93979 16.04 4.49978 15.62 5.08978L14.37 6.83978L12.11 9.99976H19.23C19.65 9.99976 19.9 10.2398 20.01 10.3798C20.12 10.5198 20.3 10.8198 20.2 11.2298V11.2798L18.58 19.2498C18.47 19.6998 18.07 20.0098 17.61 20.0098H10V8.64978L13.73 3.42981C13.92 3.16981 14.22 3.00977 14.54 3.00977M14.54 1.00977C13.57 1.00977 12.66 1.47978 12.1 2.26978L8 8.00977V22.0098H17.61C19.01 22.0098 20.22 21.0498 20.53 19.6798L22.15 11.6798C22.58 9.79981 21.16 8.00977 19.23 8.00977H16L17.25 6.25977C18.82 4.05977 17.25 1.00977 14.55 1.00977H14.54Z" fill="#333333"/>
</svg>
