<svg width="24" height="24" viewBox="0 0 24 24" fill="none" xmlns="http://www.w3.org/2000/svg">
<path d="M12 11C14.76 11 17 13.24 17 16C17 18.76 14.76 21 12 21C9.24 21 7 18.76 7 16C7 13.24 9.24 11 12 11ZM12 9C8.13 9 5 12.13 5 16C5 19.87 8.13 23 12 23C15.87 23 19 19.87 19 16C19 12.13 15.87 9 12 9Z" fill="#333333"/>
<path d="M15.8008 10.6L14.2008 9.40002L18.9908 3H16.5008L12.9008 7.80005L11.3008 6.60004L15.5008 1H22.9908L15.8008 10.6Z" fill="#333333"/>
<path d="M13.19 10.6L7.48999 3H5L9.79999 9.40002L8.20001 10.6L1 1H8.48999L14.79 9.40002L13.19 10.6Z" fill="#333333"/>
</svg>
