<svg width="24" height="24" viewBox="0 0 24 24" fill="none" xmlns="http://www.w3.org/2000/svg">
<path d="M13 9H11V16H13V9Z" fill="#333333"/>
<path d="M20 15.9998H18V12.9998H6V15.9998H4V12.6298C4 11.7298 4.67 11.0098 5.5 11.0098H18.5C19.33 11.0098 20 11.7398 20 12.6298V15.9998Z" fill="#333333"/>
<path d="M13 5V7H11V5H13ZM14 3H10C9.45 3 9 3.45 9 4V8C9 8.55 9.45 9 10 9H14C14.55 9 15 8.55 15 8V4C15 3.45 14.55 3 14 3Z" fill="#333333"/>
<path d="M13 17V19H11V17H13ZM14 15H10C9.45 15 9 15.45 9 16V20C9 20.55 9.45 21 10 21H14C14.55 21 15 20.55 15 20V16C15 15.45 14.55 15 14 15Z" fill="#333333"/>
<path d="M20 17V19H18V17H20ZM21 15H17C16.45 15 16 15.45 16 16V20C16 20.55 16.45 21 17 21H21C21.55 21 22 20.55 22 20V16C22 15.45 21.55 15 21 15Z" fill="#333333"/>
<path d="M6 17V19H4V17H6ZM7 15H3C2.45 15 2 15.45 2 16V20C2 20.55 2.45 21 3 21H7C7.55 21 8 20.55 8 20V16C8 15.45 7.55 15 7 15Z" fill="#333333"/>
</svg>
