<svg width="24" height="24" viewBox="0 0 24 24" fill="none" xmlns="http://www.w3.org/2000/svg">
<path d="M20 17V10C20 6.22 17.37 3.06 13.84 2.22C13.54 1.5 12.83 1 12 1C11.17 1 10.46 1.5 10.16 2.22C6.63 3.05 4 6.22 4 10V17C3.45 17 3 17.45 3 18C3 18.55 3.45 19 4 19H9C9 20.65 10.35 22 12 22C13.65 22 15 20.65 15 19H20C20.55 19 21 18.55 21 18C21 17.45 20.55 17 20 17ZM6 10C6 6.69 8.69 4 12 4C15.31 4 18 6.69 18 10V17H6V10ZM12 20C11.45 20 11 19.55 11 19H13C13 19.55 12.55 20 12 20Z" fill="#333333"/>
</svg>
