<svg width="24" height="24" viewBox="0 0 24 24" fill="none" xmlns="http://www.w3.org/2000/svg">
<path d="M10.0004 21.0004C9.84043 21.0004 9.68046 20.9604 9.53046 20.8804C9.50046 20.8704 8.32046 20.2204 7.22046 18.7904C6.02046 19.7604 4.71042 20.4904 3.31042 20.9404L2.69043 19.0404C3.93043 18.6304 5.10041 17.9604 6.17041 17.0604C5.26041 15.1204 4.83042 12.3704 6.06042 8.67039C6.46042 7.58039 8.54043 2.35039 11.6304 3.20039C11.6304 3.20039 12.6404 3.40039 13.2604 4.49039C14.0104 5.79039 13.9004 7.76039 12.9404 10.3304C11.8704 13.2004 10.4204 15.6004 8.68042 17.4304C9.06042 17.9504 9.46041 18.3404 9.79041 18.6104L12.2104 15.3804C12.4404 15.0704 12.8304 14.9204 13.2104 15.0004C13.5904 15.0804 13.8904 15.3604 13.9804 15.7404L14.4705 17.7004L16.2104 15.3804C16.4404 15.0704 16.8304 14.9204 17.2104 15.0004C17.5904 15.0804 17.8904 15.3604 17.9804 15.7404L18.4705 17.7004L20.2104 15.3804L21.8104 16.5804L18.8104 20.5804C18.5804 20.8904 18.1904 21.0404 17.8104 20.9604C17.4304 20.8804 17.1304 20.6004 17.0404 20.2204L16.5504 18.2604L14.8104 20.5804C14.5804 20.8904 14.1904 21.0404 13.8104 20.9604C13.4304 20.8804 13.1304 20.6004 13.0404 20.2204L12.5504 18.2604L10.8104 20.5804C10.6204 20.8404 10.3204 20.9804 10.0104 20.9804L10.0004 21.0004ZM11.0004 5.14039C10.0404 5.14039 8.61043 7.52039 7.94043 9.35039C7.06043 12.0204 7.18043 14.0604 7.69043 15.5704C9.04043 14.0004 10.1804 12.0104 11.0604 9.66039C12.0104 7.13039 11.7704 6.01039 11.5504 5.57039C11.3904 5.24039 11.1704 5.17039 11.1404 5.17039C11.0904 5.16039 11.0504 5.15039 11.0004 5.15039V5.14039Z" fill="#333333"/>
</svg>
