<svg width="24" height="24" viewBox="0 0 24 24" fill="none" xmlns="http://www.w3.org/2000/svg">
<path d="M13.8006 21.9993H10.2006C9.1506 21.9993 8.3006 21.1493 8.3006 20.0993V19.3093C8.0306 19.1693 7.77061 19.0193 7.52061 18.8593L6.8406 19.2493C5.9306 19.7693 4.77061 19.4593 4.24061 18.5493L2.4406 15.4293C2.1906 14.9893 2.1206 14.4793 2.2506 13.9893C2.3806 13.4993 2.7006 13.0893 3.1406 12.8393L3.82061 12.4493C3.81061 12.2893 3.8006 12.1393 3.8006 11.9993C3.8006 11.8593 3.80061 11.6993 3.82061 11.5493L3.1406 11.1593C2.2306 10.6393 1.9206 9.46926 2.4406 8.55926L4.24061 5.43926C4.49061 4.99926 4.9006 4.68926 5.3906 4.54926C5.8806 4.41926 6.3906 4.48926 6.8306 4.73926L7.51061 5.12926C7.76061 4.95926 8.02061 4.80926 8.29061 4.67926V3.88926C8.29061 2.83926 9.1406 1.98926 10.1906 1.98926H13.7906C14.8406 1.98926 15.6906 2.83926 15.6906 3.88926V4.67926C15.9606 4.81926 16.2206 4.96926 16.4706 5.12926L17.1506 4.73926C18.0606 4.21926 19.2206 4.52926 19.7506 5.43926L21.5506 8.55926C22.0706 9.46926 21.7606 10.6293 20.8606 11.1593L20.1806 11.5493C20.1906 11.7093 20.2006 11.8593 20.2006 11.9993C20.2006 12.1393 20.2006 12.2993 20.1806 12.4493L20.8606 12.8393C21.7706 13.3593 22.0806 14.5293 21.5606 15.4393L19.7606 18.5593C19.2406 19.4693 18.0706 19.7793 17.1606 19.2593L16.4806 18.8693C16.2306 19.0393 15.9706 19.1893 15.7006 19.3193V20.1093C15.7006 21.1593 14.8506 22.0093 13.8006 22.0093V21.9993ZM10.3006 19.9993H13.7006V17.9993L14.3206 17.7493C14.8506 17.5393 15.3506 17.2493 15.8006 16.8893L16.3306 16.4693L18.0706 17.4693L19.7706 14.5293L18.0306 13.5293L18.1206 12.8593C18.1706 12.5293 18.1906 12.2593 18.1906 11.9993C18.1906 11.7393 18.1706 11.4693 18.1206 11.1393L18.0306 10.4693L19.7706 9.46926L18.0706 6.52926L16.3306 7.52926L15.8006 7.10926C15.3406 6.74926 14.8406 6.45926 14.3206 6.24926L13.7006 5.99926V3.99926H10.3006V5.99926L9.68061 6.24926C9.15061 6.45926 8.6506 6.74926 8.2006 7.10926L7.6706 7.52926L5.93061 6.52926L4.23061 9.46926L5.9706 10.4693L5.88061 11.1393C5.83061 11.4693 5.8106 11.7493 5.8106 11.9993C5.8106 12.2493 5.83061 12.5293 5.88061 12.8593L5.9706 13.5293L4.23061 14.5293L5.93061 17.4693L7.6706 16.4693L8.2006 16.8893C8.6606 17.2493 9.16061 17.5393 9.68061 17.7493L10.3006 17.9993V19.9993Z" fill="#333333"/>
<path d="M12 15C10.35 15 9 13.65 9 12C9 10.35 10.35 9 12 9C13.65 9 15 10.35 15 12C15 13.65 13.65 15 12 15ZM12 11C11.45 11 11 11.45 11 12C11 12.55 11.45 13 12 13C12.55 13 13 12.55 13 12C13 11.45 12.55 11 12 11Z" fill="#333333"/>
</svg>
