<svg width="24" height="24" viewBox="0 0 24 24" fill="none" xmlns="http://www.w3.org/2000/svg">
<path d="M6.75998 4.52036L8.87997 6.64035L7.72995 7.79034L6.54996 8.97037L7.49997 10.3404C8.33997 11.5604 9.27996 12.6903 10.3 13.7003C11.32 14.7203 12.45 15.6604 13.66 16.5004L15.03 17.4503L16.21 16.2704L17.37 15.1204L19.49 17.2404L19.44 17.2903L16.4799 20.2504C15.7099 19.9204 14.95 19.5504 14.22 19.1404C12.26 18.0504 10.47 16.6904 8.88998 15.1204C7.30998 13.5404 5.95996 11.7503 4.86996 9.79034C4.45996 9.05034 4.08998 8.29037 3.75998 7.53036L6.72 4.57034L6.76999 4.52036M6.76999 2.11035C6.50999 2.11035 6.25997 2.21036 6.05997 2.40036L5.29996 3.16034L2.33999 6.12036C1.77999 6.68036 1.57998 7.54036 1.88998 8.27036C2.24998 9.12036 2.65995 9.95036 3.10995 10.7704C4.25995 12.8404 5.71 14.7803 7.47 16.5403C9.23 18.3003 11.17 19.7404 13.24 20.9004C14.06 21.3504 14.89 21.7604 15.74 22.1204C15.98 22.2204 16.23 22.2704 16.47 22.2704C16.99 22.2704 17.51 22.0604 17.89 21.6804L20.85 18.7204L21.61 17.9604C22 17.5704 22 16.9404 21.61 16.5504L18.07 13.0103C17.87 12.8103 17.62 12.7204 17.36 12.7204C17.1 12.7204 16.85 12.8203 16.65 13.0103L14.7899 14.8704C13.6999 14.1204 12.67 13.2704 11.7 12.3004C10.73 11.3304 9.87997 10.3004 9.12997 9.21036L10.99 7.35034C11.38 6.96034 11.38 6.33034 10.99 5.94034L7.44998 2.40036C7.24998 2.20036 6.99996 2.11035 6.73996 2.11035H6.76999Z" fill="#333333"/>
</svg>
