<svg width="24" height="24" viewBox="0 0 24 24" fill="none" xmlns="http://www.w3.org/2000/svg">
<path d="M7.96043 21.6298C6.30043 21.6298 4.63039 20.9998 3.36039 19.7298C0.830391 17.1998 0.830391 13.0698 3.36039 10.5398L10.0804 3.81976L11.4904 5.22977L4.77042 11.9498C3.02042 13.6998 3.02042 16.5598 4.77042 18.3098C6.53043 20.0698 9.38041 20.0598 11.1304 18.3098L19.4704 9.96976C20.5204 8.90976 20.5204 7.19977 19.4704 6.13977C18.4104 5.07977 16.7004 5.07977 15.6404 6.13977L7.66044 14.1298C7.47044 14.3198 7.3704 14.5698 7.3704 14.8398C7.3704 15.1098 7.47044 15.3598 7.66044 15.5498C8.04044 15.9298 8.70041 15.9298 9.07041 15.5498L16.8504 7.76976L18.2604 9.17977L10.4804 16.9598C9.35039 18.0898 7.3704 18.0898 6.2404 16.9598C5.6704 16.3898 5.36039 15.6398 5.36039 14.8398C5.36039 14.0398 5.6704 13.2898 6.2404 12.7198L14.2204 4.72977C16.0504 2.89977 19.0404 2.88977 20.8804 4.72977C22.7104 6.56977 22.7104 9.54977 20.8804 11.3898L12.5404 19.7298C11.2704 20.9998 9.61041 21.6298 7.94041 21.6298H7.96043Z" fill="#333333"/>
</svg>
