<svg width="24" height="24" viewBox="0 0 24 24" fill="none" xmlns="http://www.w3.org/2000/svg">
<path d="M13.0007 6.00023C13.1407 6.00023 13.2807 6.00023 13.4407 6.02023C15.8207 6.23023 17.7308 8.10023 17.9708 10.4802L18.1008 11.7502L19.3107 12.1702C20.3207 12.5202 21.0007 13.4502 21.0007 14.5002C21.0007 15.8802 19.8807 17.0002 18.5007 17.0002H6.50073C4.57073 17.0002 3.00073 15.4302 3.00073 13.5002C3.00073 11.5702 4.53073 10.0402 6.43073 10.0002C6.48073 10.0002 6.54077 10.0002 6.60077 10.0102L7.92072 10.0602L8.49072 8.86023C9.31072 7.12023 11.0907 5.99023 13.0107 5.99023M13.0107 3.99023C10.2107 3.99023 7.81073 5.63023 6.69073 8.00023C6.63073 8.00023 6.57074 7.99023 6.51074 7.99023C3.47074 7.99023 1.01074 10.4502 1.01074 13.4902C1.01074 16.5302 3.47074 18.9902 6.51074 18.9902H18.5107C21.0007 18.9902 23.0107 16.9702 23.0107 14.4902C23.0107 12.5202 21.7408 10.8702 19.9708 10.2702C19.6308 6.94024 16.9607 4.31023 13.6207 4.02023C13.4207 4.00023 13.2107 3.99023 13.0107 3.99023Z" fill="#333333"/>
</svg>
