<svg width="24" height="24" viewBox="0 0 24 24" fill="none" xmlns="http://www.w3.org/2000/svg">
<path d="M14.48 22.0001H10C9.45 22.0001 9 21.5501 9 21.0001C9 20.45 9.45 20.0001 10 20.0001H13.52L17.22 15.3801C17.57 14.9501 18.19 14.8801 18.63 15.2201C19.06 15.5601 19.13 16.1901 18.79 16.6301L14.49 22.0101L14.48 22.0001Z" fill="#333333"/>
<path d="M5 10V15H4C3.45 15 3 14.55 3 14V11C3 10.45 3.45 10 4 10H5ZM6 8H4C2.34 8 1 9.34 1 11V14C1 15.66 2.34 17 4 17H6C6.55 17 7 16.55 7 16V9C7 8.45 6.55 8 6 8Z" fill="#333333"/>
<path d="M20 10C20.55 10 21 10.45 21 11V14C21 14.55 20.55 15 20 15H19V10H20ZM20 8H18C17.45 8 17 8.45 17 9V16C17 16.55 17.45 17 18 17H20C21.66 17 23 15.66 23 14V11C23 9.34 21.66 8 20 8Z" fill="#333333"/>
<path d="M19 10H17V9C17 6.24 14.76 4 12 4C9.24 4 7 6.24 7 9V10H5V9C5 5.14 8.14 2 12 2C15.86 2 19 5.14 19 9V10Z" fill="#333333"/>
</svg>
