<svg width="24" height="24" viewBox="0 0 24 24" fill="none" xmlns="http://www.w3.org/2000/svg">
<path d="M20 4V11.07L9.98005 21.09L2.91004 14.02L12.93 4H20ZM21 2H12.93C12.4 2 11.89 2.21 11.52 2.59L1.50004 12.61C0.720039 13.39 0.720039 14.66 1.50004 15.44L8.57005 22.51C8.96005 22.9 9.47005 23.1 9.98005 23.1C10.4901 23.1 11 22.9 11.39 22.51L21.41 12.49C21.79 12.11 22 11.61 22 11.08V3.00999C22 2.45999 21.55 2.00999 21 2.00999V2Z" fill="#333333"/>
<path d="M15.5 10C16.3285 10 17 9.32843 17 8.5C17 7.67157 16.3285 7 15.5 7C14.6716 7 14 7.67157 14 8.5C14 9.32843 14.6716 10 15.5 10Z" fill="#333333"/>
</svg>
