<svg width="24" height="24" viewBox="0 0 24 24" fill="none" xmlns="http://www.w3.org/2000/svg">
<path d="M11.9901 21.9996C10.8201 21.9996 9.6401 21.7896 8.4801 21.3596C5.9801 20.4196 4.00008 18.5596 2.89008 16.1296C1.79008 13.6996 1.70007 10.9896 2.63007 8.48962L4.50006 9.17963C4.17006 10.0496 4.20009 11.0096 4.59009 11.8596C4.98009 12.7096 5.67005 13.3596 6.55005 13.6896C8.35005 14.3696 10.3801 13.4496 11.0601 11.6496C12.1301 8.80963 15.3001 7.36963 18.1401 8.43963C19.5101 8.95963 20.6101 9.97963 21.2101 11.3196C21.8101 12.6596 21.8701 14.1496 21.3501 15.5296C19.8401 19.5296 16.0301 22.0096 11.9801 22.0096L11.9901 21.9996ZM4.53009 14.8496C4.59009 14.9996 4.65009 15.1596 4.72009 15.3096C5.60009 17.2596 7.19006 18.7396 9.19006 19.4896C13.3201 21.0396 17.9401 18.9496 19.4901 14.8196C19.8201 13.9396 19.7901 12.9896 19.4001 12.1396C19.0101 11.2896 18.3201 10.6396 17.4401 10.3096C15.6401 9.62962 13.6101 10.5496 12.9301 12.3496C11.8601 15.1896 8.6801 16.6296 5.8501 15.5596C5.3701 15.3796 4.92008 15.1396 4.52008 14.8396L4.53009 14.8496Z" fill="#333333"/>
<path d="M7.79024 15.9195C7.15024 15.9195 6.50019 15.8095 5.86019 15.5695C4.48019 15.0495 3.39021 14.0295 2.79021 12.6895C2.19021 11.3495 2.13023 9.85946 2.65023 8.47946C3.59023 5.97946 5.45021 3.99945 7.88021 2.88945C10.3102 1.78945 13.0302 1.69945 15.5302 2.63945C20.6902 4.57945 23.3102 10.3595 21.3702 15.5195L19.5002 14.8195C19.8302 13.9395 19.8002 12.9895 19.4102 12.1395C19.0202 11.2895 18.3302 10.6395 17.4502 10.3095C15.6502 9.62945 13.6202 10.5495 12.9402 12.3495C12.1102 14.5495 10.0102 15.9095 7.79024 15.9095V15.9195ZM12.0002 3.99945C10.8802 3.99945 9.76021 4.23945 8.70021 4.71945C6.75021 5.59945 5.27022 7.18945 4.52022 9.18945C4.19022 10.0595 4.22019 11.0195 4.61019 11.8695C5.00019 12.7195 5.69021 13.3695 6.57021 13.6995C8.37021 14.3795 10.4002 13.4595 11.0802 11.6595C12.1502 8.81946 15.3202 7.37946 18.1602 8.44946C18.6402 8.62946 19.0802 8.86946 19.4802 9.15946C18.6902 7.08946 17.0502 5.35946 14.8302 4.51946C13.9102 4.17946 12.9602 3.99945 12.0102 3.99945H12.0002Z" fill="#333333"/>
</svg>
