<svg width="24" height="24" viewBox="0 0 24 24" fill="none" xmlns="http://www.w3.org/2000/svg">
<path d="M21 20H3V22H21V20Z" fill="#333333"/>
<path fill-rule="evenodd" clip-rule="evenodd" d="M17.7071 2.29289C17.3166 1.90237 16.6834 1.90237 16.2929 2.29289L13.2968 5.289L13.2928 5.29289L13.289 5.29681L5.29287 13.2929C5.16471 13.4211 5.07379 13.5816 5.02983 13.7575L4.02983 17.7575C3.94464 18.0982 4.04449 18.4587 4.29287 18.7071C4.54125 18.9555 4.90174 19.0553 5.24251 18.9701L9.24251 17.9701C9.41834 17.9262 9.57892 17.8353 9.70708 17.7071L20.7071 6.70711C21.0976 6.31658 21.0976 5.68342 20.7071 5.29289L17.7071 2.29289ZM17 7.5858L18.5858 6L17 4.41421L15.4142 6.00001L17 7.5858ZM14 7.41422L15.5858 9.00001L8.48873 16.097L6.37434 16.6256L6.90294 14.5112L14 7.41422Z" fill="#333333"/>
</svg>
