<svg width="24" height="24" viewBox="0 0 24 24" fill="none" xmlns="http://www.w3.org/2000/svg">
<path d="M12 5.27011V18.7301L9.27997 16.4601L8.71997 16.0001H4V8.00012H8.71997L9.27997 7.5401L12 5.27011ZM12.99 2.1301C12.77 2.1301 12.55 2.20011 12.36 2.36011L8 5.99011H3C2.45 5.99011 2 6.44011 2 6.99011V16.9901C2 17.5401 2.45 17.9901 3 17.9901H8L12.36 21.6201C12.55 21.7801 12.78 21.8501 12.99 21.8501C13.51 21.8501 14 21.4401 14 20.8501V3.12012C14 2.52012 13.51 2.12012 12.99 2.12012V2.1301Z" fill="#333333"/>
<path d="M23.0009 12.0005C23.0009 9.11049 21.7108 6.37047 19.5408 4.48047L18.1309 5.89047C19.9309 7.41047 21.0109 9.65049 21.0109 12.0005C21.0109 14.3505 19.9409 16.6005 18.1309 18.1105L19.5408 19.5205C21.7108 17.6305 23.0009 14.8905 23.0009 12.0005Z" fill="#333333"/>
<path d="M19.0005 12.0003C19.0005 10.1603 18.1306 8.44031 16.6906 7.32031L15.2705 8.74033C16.3505 9.49033 17.0005 10.7003 17.0005 12.0003C17.0005 13.3003 16.3405 14.5203 15.2705 15.2603L16.6906 16.6803C18.1306 15.5503 19.0005 13.8403 19.0005 12.0003Z" fill="#333333"/>
</svg>
