<svg width="24" height="24" viewBox="0 0 24 24" fill="none" xmlns="http://www.w3.org/2000/svg">
<path d="M19 4V20H7V4H19ZM19 2H6C5.45 2 5 2.45 5 3V21C5 21.55 5.45 22 6 22H19C20.1 22 21 21.1 21 20V4C21 2.9 20.1 2 19 2Z" fill="#333333"/>
<path d="M5.5 6H3.5C3.22386 6 3 6.22386 3 6.5V7.5C3 7.77614 3.22386 8 3.5 8H5.5C5.77614 8 6 7.77614 6 7.5V6.5C6 6.22386 5.77614 6 5.5 6Z" fill="#333333"/>
<path d="M5.5 11H3.5C3.22386 11 3 11.2239 3 11.5V12.5C3 12.7761 3.22386 13 3.5 13H5.5C5.77614 13 6 12.7761 6 12.5V11.5C6 11.2239 5.77614 11 5.5 11Z" fill="#333333"/>
<path d="M5.5 16H3.5C3.22386 16 3 16.2239 3 16.5V17.5C3 17.7761 3.22386 18 3.5 18H5.5C5.77614 18 6 17.7761 6 17.5V16.5C6 16.2239 5.77614 16 5.5 16Z" fill="#333333"/>
<path d="M15.04 11.19C15.63 10.64 16.01 9.87 16.01 9C16.01 7.34 14.67 6 13.01 6C11.35 6 10.01 7.34 10.01 9C10.01 9.87 10.39 10.65 10.98 11.2C9.84 11.62 9.02 12.71 9.02 14V16C9.02 17.1 9.92 18 11.02 18H15.02C16.12 18 17.02 17.1 17.02 16V14C17.02 12.71 16.2 11.62 15.05 11.19H15.04ZM13 7.99C13.55 7.99 14 8.44 14 8.99C14 9.54 13.55 9.99 13 9.99C12.45 9.99 12 9.54 12 8.99C12 8.44 12.45 7.99 13 7.99ZM15 15.99H11V13.99C11 13.44 11.45 12.99 12 12.99H14C14.55 12.99 15 13.44 15 13.99V15.99Z" fill="#333333"/>
</svg>
