<svg width="24" height="24" viewBox="0 0 24 24" fill="none" xmlns="http://www.w3.org/2000/svg">
<path d="M21 13C20.45 13 20 12.55 20 12C20 7.59 16.41 4 12 4C7.59 4 4 7.59 4 12C4 12.55 3.55 13 3 13C2.45 13 2 12.55 2 12C2 6.49 6.49 2 12 2C17.51 2 22 6.49 22 12C22 12.55 21.55 13 21 13Z" fill="#333333"/>
<path d="M7.5 5.20996C8.05228 5.20996 8.5 4.76225 8.5 4.20996C8.5 3.65768 8.05228 3.20996 7.5 3.20996C6.94772 3.20996 6.5 3.65768 6.5 4.20996C6.5 4.76225 6.94772 5.20996 7.5 5.20996Z" fill="#333333"/>
<path d="M4.20996 8.5C4.76225 8.5 5.20996 8.05228 5.20996 7.5C5.20996 6.94772 4.76225 6.5 4.20996 6.5C3.65768 6.5 3.20996 6.94772 3.20996 7.5C3.20996 8.05228 3.65768 8.5 4.20996 8.5Z" fill="#333333"/>
<path d="M3 13C3.55228 13 4 12.5523 4 12C4 11.4477 3.55228 11 3 11C2.44772 11 2 11.4477 2 12C2 12.5523 2.44772 13 3 13Z" fill="#333333"/>
<path d="M4.20996 17.5C4.76225 17.5 5.20996 17.0523 5.20996 16.5C5.20996 15.9477 4.76225 15.5 4.20996 15.5C3.65768 15.5 3.20996 15.9477 3.20996 16.5C3.20996 17.0523 3.65768 17.5 4.20996 17.5Z" fill="#333333"/>
<path d="M7.5 20.7998C8.05228 20.7998 8.5 20.3521 8.5 19.7998C8.5 19.2475 8.05228 18.7998 7.5 18.7998C6.94772 18.7998 6.5 19.2475 6.5 19.7998C6.5 20.3521 6.94772 20.7998 7.5 20.7998Z" fill="#333333"/>
<path d="M12 22C12.5523 22 13 21.5523 13 21C13 20.4477 12.5523 20 12 20C11.4477 20 11 20.4477 11 21C11 21.5523 11.4477 22 12 22Z" fill="#333333"/>
<path d="M16.5 20.7998C17.0523 20.7998 17.5 20.3521 17.5 19.7998C17.5 19.2475 17.0523 18.7998 16.5 18.7998C15.9477 18.7998 15.5 19.2475 15.5 19.7998C15.5 20.3521 15.9477 20.7998 16.5 20.7998Z" fill="#333333"/>
<path d="M19.8008 17.5C20.3531 17.5 20.8008 17.0523 20.8008 16.5C20.8008 15.9477 20.3531 15.5 19.8008 15.5C19.2485 15.5 18.8008 15.9477 18.8008 16.5C18.8008 17.0523 19.2485 17.5 19.8008 17.5Z" fill="#333333"/>
</svg>
