<svg width="24" height="24" viewBox="0 0 24 24" fill="none" xmlns="http://www.w3.org/2000/svg">
<path d="M16 19H8V17H14V6H3V17H4.14001V19H3C1.9 19 1 18.1 1 17V6C1 4.9 1.9 4 3 4H14C15.1 4 16 4.9 16 6V19Z" fill="#333333"/>
<path d="M6 22C4.35 22 3 20.65 3 19C3 17.35 4.35 16 6 16C7.65 16 9 17.35 9 19C9 20.65 7.65 22 6 22ZM6 18C5.45 18 5 18.45 5 19C5 19.55 5.45 20 6 20C6.55 20 7 19.55 7 19C7 18.45 6.55 18 6 18Z" fill="#333333"/>
<path d="M18 22C16.35 22 15 20.65 15 19C15 17.35 16.35 16 18 16C19.65 16 21 17.35 21 19C21 20.65 19.65 22 18 22ZM18 18C17.45 18 17 18.45 17 19C17 19.55 17.45 20 18 20C18.55 20 19 19.55 19 19C19 18.45 18.55 18 18 18Z" fill="#333333"/>
<path d="M21 19H20V17H21V12.33L18.5 9H14C14 7.9 14.9 7 16 7H19.5L23 11.67V17C23 18.1 22.1 19 21 19Z" fill="#333333"/>
<path d="M15 17H8V19H15V17Z" fill="#333333"/>
</svg>
