<svg width="24" height="24" viewBox="0 0 24 24" fill="none" xmlns="http://www.w3.org/2000/svg">
<path d="M20.9407 13C20.4507 16.39 17.5307 19 14.0107 19H3.01074V16H12.8408L13.4308 15.41L15.8408 13H20.9407ZM23.0107 11H15.0107L12.0107 14H2.01074C1.46074 14 1.01074 14.45 1.01074 15V19C1.01074 20.1 1.91074 21 3.01074 21H14.0107C18.9807 21 23.0107 16.97 23.0107 12V11Z" fill="#333333"/>
<path d="M9.01074 8V14H5.01074V8H9.01074ZM10.0107 6H4.01074C3.46074 6 3.01074 6.45 3.01074 7V16H11.0107V7C11.0107 6.45 10.5607 6 10.0107 6Z" fill="#333333"/>
<path d="M8.01074 3H6.01074V6H8.01074V3Z" fill="#333333"/>
</svg>
