<svg width="24" height="24" viewBox="0 0 24 24" fill="none" xmlns="http://www.w3.org/2000/svg">
<path d="M9 15V21H3V15H9ZM10 13H2C1.45 13 1 13.45 1 14V22C1 22.55 1.45 23 2 23H10C10.55 23 11 22.55 11 22V14C11 13.45 10.55 13 10 13Z" fill="#333333"/>
<path d="M21 15V21H15V15H21ZM22 13H14C13.45 13 13 13.45 13 14V22C13 22.55 13.45 23 14 23H22C22.55 23 23 22.55 23 22V14C23 13.45 22.55 13 22 13Z" fill="#333333"/>
<path d="M15 3V9H9V3H15ZM16 1H8C7.45 1 7 1.45 7 2V10C7 10.55 7.45 11 8 11H16C16.55 11 17 10.55 17 10V2C17 1.45 16.55 1 16 1Z" fill="#333333"/>
<path d="M13 2H11V5H13V2Z" fill="#333333"/>
<path d="M7 14H5V17H7V14Z" fill="#333333"/>
<path d="M19 14H17V17H19V14Z" fill="#333333"/>
</svg>
