<svg width="24" height="24" viewBox="0 0 24 24" fill="none" xmlns="http://www.w3.org/2000/svg">
<path d="M17 10V17C17 18.1 16.1 19 15 19H7C5.9 19 5 18.1 5 17V10H17ZM18 8H4C3.45 8 3 8.45 3 9V17C3 19.21 4.79 21 7 21H15C17.21 21 19 19.21 19 17V9C19 8.45 18.55 8 18 8Z" fill="#333333"/>
<path fill-rule="evenodd" clip-rule="evenodd" d="M18.5 10H18V8H18.5C20.9823 8 23 10.0177 23 12.5C23 14.9823 20.9823 17 18.5 17H18V15H18.5C19.8777 15 21 13.8777 21 12.5C21 11.1223 19.8777 10 18.5 10Z" fill="#333333"/>
<path d="M7 7C6.45 7 6 6.55 6 6V4C6 3.45 6.45 3 7 3C7.55 3 8 3.45 8 4V6C8 6.55 7.55 7 7 7Z" fill="#333333"/>
<path d="M11 7C10.45 7 10 6.55 10 6V4C10 3.45 10.45 3 11 3C11.55 3 12 3.45 12 4V6C12 6.55 11.55 7 11 7Z" fill="#333333"/>
<path d="M15 7C14.45 7 14 6.55 14 6V4C14 3.45 14.45 3 15 3C15.55 3 16 3.45 16 4V6C16 6.55 15.55 7 15 7Z" fill="#333333"/>
</svg>
