<svg width="24" height="24" viewBox="0 0 24 24" fill="none" xmlns="http://www.w3.org/2000/svg">
<path d="M19 9C19.55 9 20 9.45 20 10V16C20 16.55 19.55 17 19 17H18V9H19ZM19 7H16V19H19C20.66 19 22 17.66 22 16V10C22 8.34 20.66 7 19 7Z" fill="#333333"/>
<path d="M15.31 22H7.69C6.21 22 5 20.8 5 19.33V6H7V19.33C7 19.7 7.31 20 7.69 20H15.31C15.69 20 16 19.7 16 19.33V6H18V19.33C18 20.8 16.79 22 15.31 22Z" fill="#333333"/>
<path d="M16 3V5H7V3H16ZM16 1H7C5.9 1 5 1.9 5 3V7H18V3C18 1.9 17.1 1 16 1Z" fill="#333333"/>
</svg>
