<svg width="24" height="24" viewBox="0 0 24 24" fill="none" xmlns="http://www.w3.org/2000/svg">
<path d="M17 3C17.55 3 18 3.45 18 4V15C18 15.55 17.55 16 17 16H7C6.45 16 6 15.55 6 15V4C6 3.45 6.45 3 7 3H17ZM17 1H7C5.34 1 4 2.34 4 4V15C4 16.66 5.34 18 7 18H17C18.66 18 20 16.66 20 15V4C20 2.34 18.66 1 17 1Z" fill="#333333"/>
<path d="M15 6V9H9V6H15ZM16 4H8C7.45 4 7 4.45 7 5V10C7 10.55 7.45 11 8 11H16C16.55 11 17 10.55 17 10V5C17 4.45 16.55 4 16 4Z" fill="#333333"/>
<path d="M8.5 12C7.67 12 7 12.67 7 13.5C7 14.33 7.67 15 8.5 15C9.33 15 10 14.33 10 13.5C10 12.67 9.33 12 8.5 12Z" fill="#333333"/>
<path d="M15.5 12C14.67 12 14 12.67 14 13.5C14 14.33 14.67 15 15.5 15C16.33 15 17 14.33 17 13.5C17 12.67 16.33 12 15.5 12Z" fill="#333333"/>
<path d="M10 18H7L2 23H5L10 18Z" fill="#333333"/>
<path d="M17 18H14L19 23H22L17 18Z" fill="#333333"/>
</svg>
