<svg width="24" height="24" viewBox="0 0 24 24" fill="none" xmlns="http://www.w3.org/2000/svg">
<path d="M11.76 3L14.76 9H12.48L10.68 3H11.76ZM13 1H8L11 11H18L13 1Z" fill="#333333"/>
<path d="M14.76 15L11.76 21H10.68L12.48 15H14.76ZM18 13H11L8 23H13L18 13Z" fill="#333333"/>
<path d="M6.68027 18H1.78027L2.98027 12L1.78027 6H6.68027L7.88026 9H20.0003C21.6503 9 23.0003 10.35 23.0003 12C23.0003 13.65 21.6503 15 20.0003 15H7.88026L6.68027 18ZM4.22028 16H5.32027L6.52026 13H20.0003C20.5503 13 21.0003 12.55 21.0003 12C21.0003 11.45 20.5503 11 20.0003 11H6.52026L5.32027 8H4.22028L5.02026 12L4.22028 16Z" fill="#333333"/>
</svg>
