<svg width="24" height="24" viewBox="0 0 24 24" fill="none" xmlns="http://www.w3.org/2000/svg">
<path d="M13 13V19.79C13 19.91 12.78 20 12.5 20H11.5C11.22 20 11 19.91 11 19.79V13H13Z" fill="#333333"/>
<path d="M17 13H15C15 8.12 13.22 5 12 5C10.78 5 9 8.12 9 13H7C7 7.3 9.15 3 12 3C14.85 3 17 7.3 17 13Z" fill="#333333"/>
<path d="M12.0007 5C15.7207 5 18.8607 7.55 19.7507 11H4.26074C5.15074 7.55 8.29074 5 12.0107 5M12.0107 3C6.49074 3 2.01074 7.48 2.01074 13H22.0107C22.0107 7.48 17.5307 3 12.0107 3Z" fill="#333333"/>
<path d="M20 19H4C3.44772 19 3 19.4477 3 20C3 20.5523 3.44772 21 4 21H20C20.5523 21 21 20.5523 21 20C21 19.4477 20.5523 19 20 19Z" fill="#333333"/>
</svg>
