<svg width="24" height="24" viewBox="0 0 24 24" fill="none" xmlns="http://www.w3.org/2000/svg">
<path d="M12.0098 8C12.5598 8 13.0098 8.45 13.0098 9C13.0098 9.55 12.5598 10 12.0098 10C11.4598 10 11.0098 9.55 11.0098 9C11.0098 8.45 11.4598 8 12.0098 8ZM12.0098 6C10.3498 6 9.00977 7.34 9.00977 9C9.00977 10.66 10.3498 12 12.0098 12C13.6698 12 15.0098 10.66 15.0098 9C15.0098 7.34 13.6698 6 12.0098 6Z" fill="#333333"/>
<path d="M12 2.97974C15.31 2.97974 18 5.66974 18 8.97974V9.20972C17.93 13.7797 15.62 17.9897 12 20.2597C8.4 17.9997 6.09 13.8197 6 9.27972V8.96973C6 5.65973 8.69 2.96973 12 2.96973M12 0.969727C7.58 0.969727 4 4.54973 4 8.96973V8.98975C4 14.9697 7.27 20.1397 12 22.5497C16.73 20.1397 20.01 14.9797 20.01 8.98975V8.96973C20.01 4.54973 16.42 0.969727 12 0.969727Z" fill="#333333"/>
</svg>
