<svg width="24" height="24" viewBox="0 0 24 24" fill="none" xmlns="http://www.w3.org/2000/svg">
<path d="M8 3.04004C9.63 3.04004 11 5.09002 11 7.52002C11 9.95002 9.63 12 8 12C6.37 12 5 9.95002 5 7.52002C5 5.09002 6.37 3.04004 8 3.04004ZM8 1.04004C5.24 1.04004 3 3.94002 3 7.52002C3 11.1 5.24 14 8 14C10.76 14 13 11.1 13 7.52002C13 3.94002 10.76 1.04004 8 1.04004Z" fill="#333333"/>
<path fill-rule="evenodd" clip-rule="evenodd" d="M7 22V13H9V22H7Z" fill="#333333"/>
<path d="M17 2H15V22H17V2Z" fill="#333333"/>
<path d="M20 2H18V22H20V2Z" fill="#333333"/>
</svg>
