<svg width="24" height="24" viewBox="0 0 24 24" fill="none" xmlns="http://www.w3.org/2000/svg">
<path d="M6.01074 22C4.36074 22 3.01074 20.65 3.01074 19C3.01074 17.35 4.36074 16 6.01074 16C7.66074 16 9.01074 17.35 9.01074 19C9.01074 20.65 7.66074 22 6.01074 22ZM6.01074 18C5.46074 18 5.01074 18.45 5.01074 19C5.01074 19.55 5.46074 20 6.01074 20C6.56074 20 7.01074 19.55 7.01074 19C7.01074 18.45 6.56074 18 6.01074 18Z" fill="#333333"/>
<path d="M18.0107 22C16.3607 22 15.0107 20.65 15.0107 19C15.0107 17.35 16.3607 16 18.0107 16C19.6607 16 21.0107 17.35 21.0107 19C21.0107 20.65 19.6607 22 18.0107 22ZM18.0107 18C17.4607 18 17.0107 18.45 17.0107 19C17.0107 19.55 17.4607 20 18.0107 20C18.5607 20 19.0107 19.55 19.0107 19C19.0107 18.45 18.5607 18 18.0107 18Z" fill="#333333"/>
<path d="M21.0107 19H20.0107V17H21.0107V12.61C21.0107 12.41 20.9508 12.22 20.8408 12.05L17.7708 7.45001C17.5808 7.17001 17.2707 7 16.9407 7H3.01074V17H4.01074V19H3.01074C1.91074 19 1.01074 18.1 1.01074 17V7C1.01074 5.9 1.91074 5 3.01074 5H16.9407C17.9407 5 18.8807 5.50003 19.4407 6.34003L22.5107 10.95C22.8407 11.45 23.0107 12.02 23.0107 12.61V17C23.0107 18.1 22.1107 19 21.0107 19Z" fill="#333333"/>
<path d="M16.0007 17H8.00073V19H16.0007V17Z" fill="#333333"/>
<path d="M16.0107 7H11.0107V4.5C11.0107 3.12 12.1307 2 13.5107 2C14.8907 2 16.0107 3.12 16.0107 4.5V7ZM13.0107 5H14.0107V4.5C14.0107 4.22 13.7907 4 13.5107 4C13.2307 4 13.0107 4.22 13.0107 4.5V5Z" fill="#333333"/>
<path d="M8.5 8H7.5C7.22 8 7 8.22 7 8.5V13.5C7 13.78 7.22 14 7.5 14H8.5C8.78 14 9 13.78 9 13.5V8.5C9 8.22 8.78 8 8.5 8Z" fill="#333333"/>
<path d="M10.5 10H5.5C5.22 10 5 10.22 5 10.5V11.5C5 11.78 5.22 12 5.5 12H10.5C10.78 12 11 11.78 11 11.5V10.5C11 10.22 10.78 10 10.5 10Z" fill="#333333"/>
<path d="M22.0107 13H13.0107V8H20.0007V10H15.0107V11H22.0107V13Z" fill="#333333"/>
</svg>
