<svg width="24" height="24" viewBox="0 0 24 24" fill="none" xmlns="http://www.w3.org/2000/svg">
<path d="M5.00037 21C3.35037 21 2.00037 19.65 2.00037 18C2.00037 16.35 3.35037 15 5.00037 15C6.65037 15 8.00037 16.35 8.00037 18C8.00037 19.65 6.65037 21 5.00037 21ZM5.00037 17C4.45037 17 4.00037 17.45 4.00037 18C4.00037 18.55 4.45037 19 5.00037 19C5.55037 19 6.00037 18.55 6.00037 18C6.00037 17.45 5.55037 17 5.00037 17Z" fill="#333333"/>
<path d="M20.0004 21C18.3504 21 17.0004 19.65 17.0004 18C17.0004 16.35 18.3504 15 20.0004 15C21.6504 15 23.0004 16.35 23.0004 18C23.0004 19.65 21.6504 21 20.0004 21ZM20.0004 17C19.4504 17 19.0004 17.45 19.0004 18C19.0004 18.55 19.4504 19 20.0004 19C20.5504 19 21.0004 18.55 21.0004 18C21.0004 17.45 20.5504 17 20.0004 17Z" fill="#333333"/>
<path d="M18.0004 17H9.00037V19H18.0004V17Z" fill="#333333"/>
<path d="M21.0004 16H19.0004V5H14.0004V3H21.0004V16Z" fill="#333333"/>
<path d="M11.0004 18H9.00037C9.00037 15.79 7.21037 14 5.00037 14C4.13037 14 3.30037 14.28 2.60037 14.8L1.40039 13.2C2.44039 12.42 3.69036 12 4.99036 12C8.30036 12 10.9904 14.69 10.9904 18H11.0004Z" fill="#333333"/>
</svg>
