<svg width="24" height="24" viewBox="0 0 24 24" fill="none" xmlns="http://www.w3.org/2000/svg">
<path d="M6 8V11H3V8H6ZM7 6H2C1.45 6 1 6.45 1 7V12C1 12.55 1.45 13 2 13H7C7.55 13 8 12.55 8 12V7C8 6.45 7.55 6 7 6Z" fill="#333333"/>
<path d="M4 22C2.35 22 1 20.65 1 19C1 17.35 2.35 16 4 16C5.65 16 7 17.35 7 19C7 20.65 5.65 22 4 22ZM4 18C3.45 18 3 18.45 3 19C3 19.55 3.45 20 4 20C4.55 20 5 19.55 5 19C5 18.45 4.55 18 4 18Z" fill="#333333"/>
<path d="M20 22C18.35 22 17 20.65 17 19C17 17.35 18.35 16 20 16C21.65 16 23 17.35 23 19C23 20.65 21.65 22 20 22ZM20 18C19.45 18 19 18.45 19 19C19 19.55 19.45 20 20 20C20.55 20 21 19.55 21 19C21 18.45 20.55 18 20 18Z" fill="#333333"/>
<path d="M19.04 17.3L15.26 5H12V3H16.7401L20.95 16.71L19.04 17.3Z" fill="#333333"/>
<path d="M10.13 19.5L6.42004 13H3V11H7.58002L11.87 18.51L10.13 19.5Z" fill="#333333"/>
<path d="M17.0907 10.5194L13.0947 18.5166L14.8838 19.4106L18.8798 11.4133L17.0907 10.5194Z" fill="#333333"/>
<path d="M18 18H6V20H18V18Z" fill="#333333"/>
</svg>
