<svg width="24" height="24" viewBox="0 0 24 24" fill="none" xmlns="http://www.w3.org/2000/svg">
<path d="M9 14.5C9 13.6716 8.32843 13 7.5 13C6.67157 13 6 13.6716 6 14.5C6 15.3284 6.67157 16 7.5 16C8.32843 16 9 15.3284 9 14.5Z" fill="#333333"/>
<path d="M16.2305 6C17.0605 6 17.8105 6.51999 18.1005 7.29999L19.1105 10H4.88049L5.8905 7.29999C6.1805 6.51999 6.9305 6 7.7605 6H16.2205M16.2205 4H7.7605C6.0905 4 4.6005 5.02998 4.0105 6.59998L1.98047 12H21.9805L19.9505 6.59998C19.3605 5.03998 17.8705 4 16.2005 4H16.2205Z" fill="#333333"/>
<path d="M6 19H2V20C2 20.55 2.45 21 3 21H5C5.55 21 6 20.55 6 20V19Z" fill="#333333"/>
<path d="M22 19H18V20C18 20.55 18.45 21 19 21H21C21.55 21 22 20.55 22 20V19Z" fill="#333333"/>
<path d="M22 12H20V19H22V12Z" fill="#333333"/>
<path d="M4 12H2V19H4V12Z" fill="#333333"/>
<path d="M21 17H3V19H21V17Z" fill="#333333"/>
<path d="M14 14H10V16H14V14Z" fill="#333333"/>
<path d="M17.9902 14.5C17.9902 13.6716 17.3187 13 16.4902 13C15.6618 13 14.9902 13.6716 14.9902 14.5C14.9902 15.3284 15.6618 16 16.4902 16C17.3187 16 17.9902 15.3284 17.9902 14.5Z" fill="#333333"/>
<path d="M10 2H13.99C14.54 2 14.99 2.45 14.99 3V4H9V3C9 2.45 9.45 2 10 2Z" fill="#333333"/>
</svg>
