<svg width="24" height="24" viewBox="0 0 24 24" fill="none" xmlns="http://www.w3.org/2000/svg">
<path fill-rule="evenodd" clip-rule="evenodd" d="M5 20V9H3V22H21V9H19V20H5Z" fill="#333333"/>
<path d="M22.0001 12.0002C21.7801 12.0002 21.5601 11.9302 21.3801 11.7802L12.6201 4.82016C12.2501 4.53016 11.7401 4.53016 11.3801 4.82016L2.63005 11.7802C2.20005 12.1202 1.57005 12.0502 1.22005 11.6202C0.880053 11.1902 0.950053 10.5602 1.38005 10.2102L10.1301 3.25016C11.2301 2.38016 12.7701 2.38016 13.8601 3.25016L22.6201 10.2102C23.0501 10.5502 23.1201 11.1802 22.7801 11.6202C22.5801 11.8702 22.2901 12.0002 22.0001 12.0002Z" fill="#333333"/>
<path d="M11 14V20H9V14H11ZM13 12H7V22H13V12Z" fill="#333333"/>
<path d="M17 12H14V15H17V12Z" fill="#333333"/>
</svg>
