<svg width="24" height="24" viewBox="0 0 24 24" fill="none" xmlns="http://www.w3.org/2000/svg">
<path d="M15 5V20H5V5H15ZM16 3H4C3.45 3 3 3.45 3 4V22H17V4C17 3.45 16.55 3 16 3Z" fill="#333333"/>
<path d="M19 9V20H17V9H19ZM20 7H16C15.45 7 15 7.45 15 8V22H21V8C21 7.45 20.55 7 20 7Z" fill="#333333"/>
<path d="M8.5 7H7.5C7.22 7 7 7.22 7 7.5V8.5C7 8.78 7.22 9 7.5 9H8.5C8.78 9 9 8.78 9 8.5V7.5C9 7.22 8.78 7 8.5 7Z" fill="#333333"/>
<path d="M12.5 7H11.5C11.22 7 11 7.22 11 7.5V8.5C11 8.78 11.22 9 11.5 9H12.5C12.78 9 13 8.78 13 8.5V7.5C13 7.22 12.78 7 12.5 7Z" fill="#333333"/>
<path d="M8.5 11H7.5C7.22 11 7 11.22 7 11.5V12.5C7 12.78 7.22 13 7.5 13H8.5C8.78 13 9 12.78 9 12.5V11.5C9 11.22 8.78 11 8.5 11Z" fill="#333333"/>
<path d="M12.5 11H11.5C11.22 11 11 11.22 11 11.5V12.5C11 12.78 11.22 13 11.5 13H12.5C12.78 13 13 12.78 13 12.5V11.5C13 11.22 12.78 11 12.5 11Z" fill="#333333"/>
<path d="M8.5 15H7.5C7.22 15 7 15.22 7 15.5V16.5C7 16.78 7.22 17 7.5 17H8.5C8.78 17 9 16.78 9 16.5V15.5C9 15.22 8.78 15 8.5 15Z" fill="#333333"/>
<path d="M12.5 15H11.5C11.22 15 11 15.22 11 15.5V16.5C11 16.78 11.22 17 11.5 17H12.5C12.78 17 13 16.78 13 16.5V15.5C13 15.22 12.78 15 12.5 15Z" fill="#333333"/>
</svg>
