<svg width="24" height="24" viewBox="0 0 24 24" fill="none" xmlns="http://www.w3.org/2000/svg">
<path d="M19 18V20H5V18H19ZM20 16H4C3.45 16 3 16.45 3 17V22H21V17C21 16.45 20.55 16 20 16Z" fill="#333333"/>
<path d="M18.01 6H16.01V4H8V6H6V2H18.01V6Z" fill="#333333"/>
<path d="M18 6V16H6V6H18ZM20 4H4V18H20V4Z" fill="#333333"/>
<path d="M21.0007 4H3.01074V6H21.0007V4Z" fill="#333333"/>
<path d="M9.5 8H8.5C8.22 8 8 8.22 8 8.5V9.5C8 9.78 8.22 10 8.5 10H9.5C9.78 10 10 9.78 10 9.5V8.5C10 8.22 9.78 8 9.5 8Z" fill="#333333"/>
<path d="M9.5 12H8.5C8.22 12 8 12.22 8 12.5V13.5C8 13.78 8.22 14 8.5 14H9.5C9.78 14 10 13.78 10 13.5V12.5C10 12.22 9.78 12 9.5 12Z" fill="#333333"/>
<path d="M12.5107 8H11.5107C11.2307 8 11.0107 8.22 11.0107 8.5V9.5C11.0107 9.78 11.2307 10 11.5107 10H12.5107C12.7907 10 13.0107 9.78 13.0107 9.5V8.5C13.0107 8.22 12.7907 8 12.5107 8Z" fill="#333333"/>
<path d="M12.5107 12H11.5107C11.2307 12 11.0107 12.22 11.0107 12.5V13.5C11.0107 13.78 11.2307 14 11.5107 14H12.5107C12.7907 14 13.0107 13.78 13.0107 13.5V12.5C13.0107 12.22 12.7907 12 12.5107 12Z" fill="#333333"/>
<path d="M15.5107 8H14.5107C14.2307 8 14.0107 8.22 14.0107 8.5V9.5C14.0107 9.78 14.2307 10 14.5107 10H15.5107C15.7907 10 16.0107 9.78 16.0107 9.5V8.5C16.0107 8.22 15.7907 8 15.5107 8Z" fill="#333333"/>
<path d="M15.5107 12H14.5107C14.2307 12 14.0107 12.22 14.0107 12.5V13.5C14.0107 13.78 14.2307 14 14.5107 14H15.5107C15.7907 14 16.0107 13.78 16.0107 13.5V12.5C16.0107 12.22 15.7907 12 15.5107 12Z" fill="#333333"/>
</svg>
