<svg width="24" height="24" viewBox="0 0 24 24" fill="none" xmlns="http://www.w3.org/2000/svg">
<path d="M15.0107 5V20H5.01074V5H15.0107ZM16.0107 3H4.01074C3.46074 3 3.01074 3.45 3.01074 4V22H17.0107V4C17.0107 3.45 16.5607 3 16.0107 3Z" fill="#333333"/>
<path d="M19.0107 9V20H17.0107V9H19.0107ZM20.0107 7H16.0107C15.4607 7 15.0107 7.45 15.0107 8V22H21.0107V8C21.0107 7.45 20.5607 7 20.0107 7Z" fill="#333333"/>
<path d="M8.51074 13H7.51074C7.23074 13 7.01074 13.22 7.01074 13.5V14.5C7.01074 14.78 7.23074 15 7.51074 15H8.51074C8.79074 15 9.01074 14.78 9.01074 14.5V13.5C9.01074 13.22 8.79074 13 8.51074 13Z" fill="#333333"/>
<path d="M12.5107 13H11.5107C11.2307 13 11.0107 13.22 11.0107 13.5V14.5C11.0107 14.78 11.2307 15 11.5107 15H12.5107C12.7907 15 13.0107 14.78 13.0107 14.5V13.5C13.0107 13.22 12.7907 13 12.5107 13Z" fill="#333333"/>
<path d="M8.51074 16H7.51074C7.23074 16 7.01074 16.22 7.01074 16.5V17.5C7.01074 17.78 7.23074 18 7.51074 18H8.51074C8.79074 18 9.01074 17.78 9.01074 17.5V16.5C9.01074 16.22 8.79074 16 8.51074 16Z" fill="#333333"/>
<path d="M12.5107 16H11.5107C11.2307 16 11.0107 16.22 11.0107 16.5V17.5C11.0107 17.78 11.2307 18 11.5107 18H12.5107C12.7907 18 13.0107 17.78 13.0107 17.5V16.5C13.0107 16.22 12.7907 16 12.5107 16Z" fill="#333333"/>
<path d="M10.5007 6H9.50073C9.22073 6 9.00073 6.22 9.00073 6.5V11.5C9.00073 11.78 9.22073 12 9.50073 12H10.5007C10.7807 12 11.0007 11.78 11.0007 11.5V6.5C11.0007 6.22 10.7807 6 10.5007 6Z" fill="#333333"/>
<path d="M12.5107 8H7.51074C7.23074 8 7.01074 8.22 7.01074 8.5V9.5C7.01074 9.78 7.23074 10 7.51074 10H12.5107C12.7907 10 13.0107 9.78 13.0107 9.5V8.5C13.0107 8.22 12.7907 8 12.5107 8Z" fill="#333333"/>
</svg>
