<svg width="24" height="24" viewBox="0 0 24 24" fill="none" xmlns="http://www.w3.org/2000/svg">
<path d="M18 4V10H16V4H18ZM19 2H15C14.45 2 14 2.45 14 3V12H20V3C20 2.45 19.55 2 19 2Z" fill="#333333"/>
<path d="M19.0004 6H14.6904V8H19.0004V6Z" fill="#333333"/>
<path d="M8.5 13H7.5C7.22 13 7 13.22 7 13.5V14.5C7 14.78 7.22 15 7.5 15H8.5C8.78 15 9 14.78 9 14.5V13.5C9 13.22 8.78 13 8.5 13Z" fill="#333333"/>
<path d="M12.5 13H11.5C11.22 13 11 13.22 11 13.5V14.5C11 14.78 11.22 15 11.5 15H12.5C12.78 15 13 14.78 13 14.5V13.5C13 13.22 12.78 13 12.5 13Z" fill="#333333"/>
<path d="M16.5 13H15.5C15.22 13 15 13.22 15 13.5V14.5C15 14.78 15.22 15 15.5 15H16.5C16.78 15 17 14.78 17 14.5V13.5C17 13.22 16.78 13 16.5 13Z" fill="#333333"/>
<path d="M8.5 16H7.5C7.22 16 7 16.22 7 16.5V17.5C7 17.78 7.22 18 7.5 18H8.5C8.78 18 9 17.78 9 17.5V16.5C9 16.22 8.78 16 8.5 16Z" fill="#333333"/>
<path d="M12.5 16H11.5C11.22 16 11 16.22 11 16.5V17.5C11 17.78 11.22 18 11.5 18H12.5C12.78 18 13 17.78 13 17.5V16.5C13 16.22 12.78 16 12.5 16Z" fill="#333333"/>
<path d="M16.5 16H15.5C15.22 16 15 16.22 15 16.5V17.5C15 17.78 15.22 18 15.5 18H16.5C16.78 18 17 17.78 17 17.5V16.5C17 16.22 16.78 16 16.5 16Z" fill="#333333"/>
<path fill-rule="evenodd" clip-rule="evenodd" d="M10.2902 5.71039C10.4902 5.51039 10.7402 5.42039 10.9902 5.42039L10.9802 5.40039C11.5002 5.40039 11.9902 5.80039 11.9902 6.40039V9.99039H20.9902C21.5402 9.99039 21.9902 10.4404 21.9902 10.9904V21.9904H1.99023V10.8204C1.99023 10.2904 2.20026 9.79039 2.58026 9.41039L6.29022 5.70039C6.49022 5.50039 6.74023 5.41039 6.99023 5.41039C7.51023 5.41039 8.00024 5.81039 8.00024 6.41039V8.0004L10.2902 5.71039ZM10.0002 12.0104V8.84039L6.84064 12H6.00024V8.84039L4.00024 10.8404V20.0104H20.0002V12.0104H10.0002Z" fill="#333333"/>
</svg>
