<svg width="24" height="24" viewBox="0 0 24 24" fill="none" xmlns="http://www.w3.org/2000/svg">
<path d="M12.0107 4C16.4207 4 20.0107 7.59 20.0107 12C20.0107 16.41 16.4207 20 12.0107 20C7.60074 20 4.01074 16.41 4.01074 12C4.01074 7.59 7.60074 4 12.0107 4ZM12.0107 2C6.49074 2 2.01074 6.48 2.01074 12C2.01074 17.52 6.49074 22 12.0107 22C17.5307 22 22.0107 17.52 22.0107 12C22.0107 6.48 17.5307 2 12.0107 2Z" fill="#333333"/>
<path d="M4.44073 17.9202C4.44073 17.9202 4.37075 17.9202 4.33075 17.9202C4.03075 17.8902 3.76077 17.7202 3.60077 17.4702C2.56077 15.8502 2.01074 13.9802 2.01074 12.0602C2.01074 9.39019 3.05073 6.88019 4.94073 4.99019C5.13073 4.80019 5.38076 4.7002 5.65076 4.7002C5.92076 4.7002 6.17078 4.81019 6.36078 4.99019L7.85077 6.48019C8.94077 7.57019 8.94077 9.35019 7.85077 10.4402C7.75077 10.5402 7.74078 10.6502 7.74078 10.7102C7.74078 10.7702 7.75077 10.8802 7.85077 10.9802C8.94077 12.0702 8.94077 13.8502 7.85077 14.9402L5.16077 17.6302C4.97077 17.8202 4.72074 17.9202 4.45074 17.9202H4.44073ZM5.68079 7.15019C4.59079 8.55019 4.00073 10.2602 4.00073 12.0602C4.00073 13.1702 4.23079 14.2602 4.68079 15.2702L6.42078 13.5302C6.73078 13.2202 6.73078 12.7102 6.42078 12.4002C5.97078 11.9502 5.72076 11.3502 5.72076 10.7202C5.72076 10.0902 5.97078 9.49019 6.42078 9.04019C6.73078 8.73019 6.73078 8.22019 6.42078 7.91019L5.68079 7.17019V7.15019Z" fill="#333333"/>
<path d="M15.6807 16.7096C14.9607 16.7096 14.2506 16.4396 13.7006 15.8896L11.3107 13.4996C10.2207 12.4096 10.2207 10.6296 11.3107 9.53958L16.7006 4.14958C17.0506 3.79958 17.6106 3.75958 18.0106 4.05958C20.5606 5.96958 22.0206 8.88959 22.0206 12.0496C22.0206 12.6396 21.9606 13.2496 21.8506 13.8696C21.7806 14.2296 21.5306 14.5196 21.1906 14.6296C20.8506 14.7496 20.4706 14.6696 20.2006 14.4296C19.8806 14.1496 19.4007 14.1596 19.1107 14.4596L17.6807 15.8896C17.1307 16.4396 16.4206 16.7096 15.7006 16.7096H15.6807ZM17.4606 6.20958L12.7206 10.9496C12.4106 11.2596 12.4106 11.7696 12.7206 12.0796L15.1107 14.4696C15.4207 14.7796 15.9307 14.7796 16.2407 14.4696L17.6706 13.0396C18.3006 12.4096 19.1706 12.1396 20.0006 12.2496C20.0006 12.1796 20.0006 12.1196 20.0006 12.0496C20.0006 9.79959 19.0806 7.71958 17.4506 6.20958H17.4606Z" fill="#333333"/>
<path d="M12.0101 22.0495C10.4601 22.0495 8.9602 21.6894 7.5602 20.9894C7.4502 20.9394 7.36016 20.8594 7.27016 20.7794C6.90016 20.3894 6.90018 19.7595 7.29018 19.3795L8.63014 18.0395C9.18014 17.4895 9.90019 17.1895 10.6802 17.1895C11.4502 17.1895 12.1802 17.4895 12.7302 18.0395L14.7902 20.0994C15.0502 20.3594 15.1402 20.7295 15.0402 21.0795C14.9402 21.4295 14.6602 21.6994 14.3102 21.7794C13.5402 21.9594 12.7702 22.0495 12.0302 22.0495H12.0101ZM9.77016 19.7295C10.4602 19.9295 11.1702 20.0395 11.9002 20.0495L11.3102 19.4594C10.9702 19.1194 10.3802 19.1194 10.0502 19.4594L9.78017 19.7295H9.77016Z" fill="#333333"/>
</svg>
