<svg width="24" height="24" viewBox="0 0 24 24" fill="none" xmlns="http://www.w3.org/2000/svg">
<path d="M12 16C11.45 16 11 15.55 11 15V11C11 10.45 11.45 10 12 10C12.55 10 13 10.45 13 11V15C13 15.55 12.55 16 12 16Z" fill="#333333"/>
<path d="M12 21C11.45 21 11 20.55 11 20V19C11 18.45 11.45 18 12 18C12.55 18 13 18.45 13 19V20C13 20.55 12.55 21 12 21Z" fill="#333333"/>
<path d="M20.0001 15.9993C19.4501 15.9993 19.0001 15.5493 19.0001 14.9993V10.9993C19.0001 7.13927 15.8601 3.99927 12.0001 3.99927C9.51005 3.99927 7.18005 5.33927 5.94005 7.49927C5.66005 7.97927 5.05004 8.13925 4.57004 7.85925C4.09004 7.57925 3.93004 6.96926 4.21004 6.48926C5.81004 3.70926 8.80005 1.98926 12.0001 1.98926C16.9601 1.98926 21.0001 6.02926 21.0001 10.9893V14.9893C21.0001 15.5393 20.5501 15.9893 20.0001 15.9893V15.9993Z" fill="#333333"/>
<path d="M8 20C7.45 20 7 19.55 7 19V11C7 8.24 9.24 6 12 6C14.76 6 17 8.24 17 11V13C17 13.55 16.55 14 16 14C15.45 14 15 13.55 15 13V11C15 9.35 13.65 8 12 8C10.35 8 9 9.35 9 11V19C9 19.55 8.55 20 8 20Z" fill="#333333"/>
<path d="M4 16C3.45 16 3 15.55 3 15V11C3 10.45 3.45 10 4 10C4.55 10 5 10.45 5 11V15C5 15.55 4.55 16 4 16Z" fill="#333333"/>
<path d="M16 20C15.45 20 15 19.55 15 19V17C15 16.45 15.45 16 16 16C16.55 16 17 16.45 17 17V19C17 19.55 16.55 20 16 20Z" fill="#333333"/>
</svg>
