<svg width="24" height="24" viewBox="0 0 24 24" fill="none" xmlns="http://www.w3.org/2000/svg">
<path d="M11.9998 14.41L8.2998 10.71L9.70981 9.29004L11.9998 11.59L15.2998 8.29004L16.7098 9.71004L11.9998 14.41Z" fill="#333333"/>
<path d="M12.0105 23.1295L11.5605 22.8995C6.29052 20.2295 3.02051 14.9095 3.02051 8.99947V3.90945L12.0105 0.939453L21.0105 3.90945V8.99947C21.0105 14.8995 17.7305 20.2295 12.4705 22.8995L12.0205 23.1295H12.0105ZM5.0105 5.35945V8.99947C5.0105 13.9695 7.6805 18.4795 12.0105 20.8695C16.3405 18.4695 19.0105 13.9695 19.0105 8.99947V5.35945L12.0105 3.04945L5.0105 5.35945Z" fill="#333333"/>
</svg>
