<svg width="24" height="24" viewBox="0 0 24 24" fill="none" xmlns="http://www.w3.org/2000/svg">
<path d="M18 8H16V7C16 4.79 14.21 3 12 3C9.79 3 8 4.79 8 7V8H6V7C6 3.69 8.69 1 12 1C15.31 1 18 3.69 18 7V8Z" fill="#333333"/>
<path d="M13 14C13 13.4477 12.5523 13 12 13C11.4477 13 11 13.4477 11 14V16C11 16.5523 11.4477 17 12 17C12.5523 17 13 16.5523 13 16V14Z" fill="#333333"/>
<path d="M19 10V20H5V10H19ZM19 8H5C3.9 8 3 8.9 3 10V20C3 21.1 3.9 22 5 22H19C20.1 22 21 21.1 21 20V10C21 8.9 20.1 8 19 8Z" fill="#333333"/>
</svg>
