<svg width="24" height="24" viewBox="0 0 24 24" fill="none" xmlns="http://www.w3.org/2000/svg">
<path d="M13 7H11V22H13V7Z" fill="#333333"/>
<path d="M12 4C12.55 4 13 4.45 13 5C13 5.55 12.55 6 12 6C11.45 6 11 5.55 11 5C11 4.45 11.45 4 12 4ZM12 2C10.34 2 9 3.34 9 5C9 6.66 10.34 8 12 8C13.66 8 15 6.66 15 5C15 3.34 13.66 2 12 2Z" fill="#333333"/>
<path d="M17 22H15V16.46L18 14.46V10H20V15.54L17 17.54V22Z" fill="#333333"/>
<path d="M19 8C19.55 8 20 8.45 20 9C20 9.55 19.55 10 19 10C18.45 10 18 9.55 18 9C18 8.45 18.45 8 19 8ZM19 6C17.34 6 16 7.34 16 9C16 10.66 17.34 12 19 12C20.66 12 22 10.66 22 9C22 7.34 20.66 6 19 6Z" fill="#333333"/>
<path d="M9.01001 22H7.01001V17.54L4 15.54V10H6V14.46L9.01001 16.46V22Z" fill="#333333"/>
<path d="M5 8C5.55 8 6 8.45 6 9C6 9.55 5.55 10 5 10C4.45 10 4 9.55 4 9C4 8.45 4.45 8 5 8ZM5 6C3.34 6 2 7.34 2 9C2 10.66 3.34 12 5 12C6.66 12 8 10.66 8 9C8 7.34 6.66 6 5 6Z" fill="#333333"/>
</svg>
