<svg width="24" height="24" viewBox="0 0 24 24" fill="none" xmlns="http://www.w3.org/2000/svg">
<path d="M17 7C18.1 7 19 7.9 19 9V17C19 18.1 18.1 19 17 19H7C5.9 19 5 18.1 5 17V9C5 7.9 5.9 7 7 7H17ZM17 5H7C4.79 5 3 6.79 3 9V17C3 19.21 4.79 21 7 21H17C19.21 21 21 19.21 21 17V9C21 6.79 19.21 5 17 5Z" fill="#333333"/>
<path d="M12 1C11.31 1 10.75 1.56 10.75 2.25V5H13.25V2.25C13.25 1.56 12.69 1 12 1Z" fill="#333333"/>
<path d="M9 11C8.45 11 8 11.45 8 12V14C8 14.55 8.45 15 9 15C9.55 15 10 14.55 10 14V12C10 11.45 9.55 11 9 11Z" fill="#333333"/>
<path d="M15 11C14.45 11 14 11.45 14 12V14C14 14.55 14.45 15 15 15C15.55 15 16 14.55 16 14V12C16 11.45 15.55 11 15 11Z" fill="#333333"/>
<path d="M3 10C1.9 10 1 10.9 1 12V14C1 15.1 1.9 16 3 16V10Z" fill="#333333"/>
<path d="M21 10V16C22.1 16 23 15.1 23 14V12C23 10.9 22.1 10 21 10Z" fill="#333333"/>
</svg>
