<svg width="24" height="24" viewBox="0 0 24 24" fill="none" xmlns="http://www.w3.org/2000/svg">
<path d="M18 6V18H6V6H18ZM18 4H6C4.9 4 4 4.9 4 6V18C4 19.1 4.9 20 6 20H18C19.1 20 20 19.1 20 18V6C20 4.9 19.1 4 18 4Z" fill="#333333"/>
<path d="M14 10V14H10V10H14ZM15 8H9C8.45 8 8 8.45 8 9V15C8 15.55 8.45 16 9 16H15C15.55 16 16 15.55 16 15V9C16 8.45 15.55 8 15 8Z" fill="#333333"/>
<path d="M13 2H11V4H13V2Z" fill="#333333"/>
<path d="M9 2H7V4H9V2Z" fill="#333333"/>
<path d="M17 2H15V4H17V2Z" fill="#333333"/>
<path d="M13 20H11V22H13V20Z" fill="#333333"/>
<path d="M9 20H7V22H9V20Z" fill="#333333"/>
<path d="M17 20H15V22H17V20Z" fill="#333333"/>
<path d="M4 11H2V13H4V11Z" fill="#333333"/>
<path d="M4 15H2V17H4V15Z" fill="#333333"/>
<path d="M4 7H2V9H4V7Z" fill="#333333"/>
<path d="M22 11H20V13H22V11Z" fill="#333333"/>
<path d="M22 15H20V17H22V15Z" fill="#333333"/>
<path d="M22 7H20V9H22V7Z" fill="#333333"/>
</svg>
