<svg width="24" height="24" viewBox="0 0 24 24" fill="none" xmlns="http://www.w3.org/2000/svg">
<path d="M12.0003 3C8.18034 3 4.65033 4.19998 1.74033 6.22998C1.27033 6.55998 1.15033 7.19997 1.49033 7.65997L11.1903 20.6C11.5903 21.13 12.3903 21.13 12.7903 20.6L22.4903 7.65997C22.8303 7.19997 22.7203 6.54998 22.2403 6.22998C19.3303 4.19998 15.8003 3 11.9803 3H12.0003ZM20.2604 7.32999L17.8603 10.53C16.1303 9.56 14.1304 9 12.0104 9C9.89035 9 7.89038 9.56 6.16038 10.53L3.76035 7.32999C6.17035 5.85999 8.99035 5 12.0104 5C15.0304 5 17.8504 5.85999 20.2704 7.32999H20.2604ZM16.6404 12.16L14.8103 14.6C13.9503 14.22 13.0104 14 12.0104 14C11.0104 14 10.0704 14.22 9.21036 14.6L7.38035 12.16C8.77035 11.43 10.3404 11.01 12.0204 11.01C13.7004 11.01 15.2704 11.43 16.6604 12.16H16.6404ZM10.4604 16.28C10.9504 16.11 11.4604 16.01 12.0104 16.01C12.5604 16.01 13.0703 16.11 13.5603 16.28L12.0104 18.34L10.4604 16.28Z" fill="#333333"/>
</svg>
