<svg width="24" height="24" viewBox="0 0 24 24" fill="none" xmlns="http://www.w3.org/2000/svg">
<path d="M12 11C12.55 11 13 11.45 13 12C13 12.55 12.55 13 12 13C11.45 13 11 12.55 11 12C11 11.45 11.45 11 12 11ZM12 9C10.34 9 9 10.34 9 12C9 13.66 10.34 15 12 15C13.66 15 15 13.66 15 12C15 10.34 13.66 9 12 9Z" fill="#333333"/>
<path d="M7.05043 16.9498C4.32043 14.2198 4.32043 9.7798 7.05043 7.0498L8.4604 8.45978C6.5104 10.4098 6.5104 13.5798 8.4604 15.5298L7.05043 16.9398V16.9498Z" fill="#333333"/>
<path d="M16.95 16.9505L15.54 15.5406C17.49 13.5906 17.49 10.4206 15.54 8.47055L16.95 7.06055C19.68 9.79055 19.68 14.2305 16.95 16.9605V16.9505Z" fill="#333333"/>
<path d="M4.22043 19.7797C-0.0695703 15.4897 -0.0695703 8.50973 4.22043 4.21973L5.6304 5.62973C2.1204 9.13973 2.1204 14.8497 5.6304 18.3597L4.22043 19.7697V19.7797Z" fill="#333333"/>
<path d="M19.7801 19.7805L18.3701 18.3705C21.8801 14.8605 21.8801 9.15047 18.3701 5.64047L19.7801 4.23047C24.0701 8.52047 24.0701 15.5005 19.7801 19.7905V19.7805Z" fill="#333333"/>
</svg>
