<svg width="24" height="24" viewBox="0 0 24 24" fill="none" xmlns="http://www.w3.org/2000/svg">
<path d="M13.01 8.30957H11.01V13.9996H13.01V8.30957Z" fill="#333333"/>
<path d="M12.2863 11.6021L7.48535 14.8026L8.59475 16.4667L13.3956 13.2662L12.2863 11.6021Z" fill="#333333"/>
<path d="M11.7666 11.627L10.6572 13.2911L15.4582 16.4918L16.5676 14.8277L11.7666 11.627Z" fill="#333333"/>
<path d="M14.0107 10H10.0107C8.91074 10 8.01074 9.1 8.01074 8V4C8.01074 2.9 8.91074 2 10.0107 2H14.0107C15.1107 2 16.0107 2.9 16.0107 4V8C16.0107 9.1 15.1107 10 14.0107 10ZM10.0107 4V8H14.0107V4H10.0107Z" fill="#333333"/>
<path d="M8.01074 22H4.01074C2.91074 22 2.01074 21.1 2.01074 20V16C2.01074 14.9 2.91074 14 4.01074 14H8.01074C9.11074 14 10.0107 14.9 10.0107 16V20C10.0107 21.1 9.11074 22 8.01074 22ZM4.01074 16V20H8.01074V16H4.01074Z" fill="#333333"/>
<path d="M20.0107 22H16.0107C14.9107 22 14.0107 21.1 14.0107 20V16C14.0107 14.9 14.9107 14 16.0107 14H20.0107C21.1107 14 22.0107 14.9 22.0107 16V20C22.0107 21.1 21.1107 22 20.0107 22ZM16.0107 16V20H20.0107V16H16.0107Z" fill="#333333"/>
</svg>
