<svg width="24" height="24" viewBox="0 0 24 24" fill="none" xmlns="http://www.w3.org/2000/svg">
<path d="M19 20H5C3.35 20 2 18.65 2 17V7C2 5.35 3.35 4 5 4H19C20.65 4 22 5.35 22 7V17C22 18.65 20.65 20 19 20ZM5 6C4.45 6 4 6.45 4 7V17C4 17.55 4.45 18 5 18H19C19.55 18 20 17.55 20 17V7C20 6.45 19.55 6 19 6H5Z" fill="#333333"/>
<path d="M22 10H2V12H22V10Z" fill="#333333"/>
<path d="M18 9C18.5523 9 19 8.55228 19 8C19 7.44772 18.5523 7 18 7C17.4477 7 17 7.44772 17 8C17 8.55228 17.4477 9 18 9Z" fill="#333333"/>
<path d="M15 9C15.5523 9 16 8.55228 16 8C16 7.44772 15.5523 7 15 7C14.4477 7 14 7.44772 14 8C14 8.55228 14.4477 9 15 9Z" fill="#333333"/>
</svg>
