<svg width="24" height="24" viewBox="0 0 24 24" fill="none" xmlns="http://www.w3.org/2000/svg">
<path d="M16 3C16.55 3 17 3.45 17 4V20C17 20.55 16.55 21 16 21H8C7.45 21 7 20.55 7 20V4C7 3.45 7.45 3 8 3H16ZM16 1H8C6.34 1 5 2.34 5 4V20C5 21.66 6.34 23 8 23H16C17.66 23 19 21.66 19 20V4C19 2.34 17.66 1 16 1Z" fill="#333333"/>
<path d="M13 2H11C10.4477 2 10 2.44772 10 3C10 3.55228 10.4477 4 11 4H13C13.5523 4 14 3.55228 14 3C14 2.44772 13.5523 2 13 2Z" fill="#333333"/>
<path d="M13 2H11C10.45 2 10 2.45 10 3C10 3.55 10.45 4 11 4H13C13.55 4 14 3.55 14 3C14 2.45 13.55 2 13 2Z" fill="#333333"/>
</svg>
