<svg width="24" height="24" viewBox="0 0 24 24" fill="none" xmlns="http://www.w3.org/2000/svg">
<path d="M21 7V17H3V7H21ZM21 5H3C1.9 5 1 5.9 1 7V17C1 18.1 1.9 19 3 19H21C22.1 19 23 18.1 23 17V7C23 5.9 22.1 5 21 5Z" fill="#333333"/>
<path d="M15 13H9V15H15V13Z" fill="#333333"/>
<path d="M7 13H5V15H7V13Z" fill="#333333"/>
<path d="M7 9H5V11H7V9Z" fill="#333333"/>
<path d="M11 9H9V11H11V9Z" fill="#333333"/>
<path d="M15 9H13V11H15V9Z" fill="#333333"/>
<path d="M19 9H17V11H19V9Z" fill="#333333"/>
<path d="M19 13H17V15H19V13Z" fill="#333333"/>
</svg>
