<svg width="24" height="24" viewBox="0 0 24 24" fill="none" xmlns="http://www.w3.org/2000/svg">
<path d="M17.9998 3.83008L20.1698 6.00009L8.99976 17.1701L6.82976 15.0001L17.9998 3.83008ZM17.9998 1.83008C17.4898 1.83008 16.9798 2.03007 16.5898 2.42007L3.99976 15.0101L8.99976 20.0101L21.5898 7.42007C22.3698 6.64007 22.3698 5.37009 21.5898 4.59009L19.4198 2.42007C19.0298 2.03007 18.5198 1.83008 18.0098 1.83008H17.9998Z" fill="#333333"/>
<path d="M15.7021 4.2966L14.2879 5.71082L18.2901 9.71304L19.7043 8.29883L15.7021 4.2966Z" fill="#333333"/>
<path d="M1.76975 20.94L3.99975 15L5.62006 16.6203L3.91016 20.0901L7.37995 18.3802L8.99975 20L3.05975 22.23C2.24975 22.53 1.46975 21.74 1.76975 20.94Z" fill="#333333"/>
<path d="M5.99976 20.0901L3.99976 18.0001L2.99976 21.0001L5.99976 20.0901Z" fill="#333333"/>
</svg>
