<svg width="24" height="24" viewBox="0 0 24 24" fill="none" xmlns="http://www.w3.org/2000/svg">
<path d="M13.8296 3.52051L20.4896 10.1805L10.1296 20.5405L3.46961 13.8805L13.8296 3.52051ZM13.8296 1.52051C13.3196 1.52051 12.8096 1.7205 12.4196 2.1105L2.05961 12.4705C1.27961 13.2505 1.27961 14.5205 2.05961 15.3005L8.71961 21.9605C9.10961 22.3505 9.61961 22.5505 10.1296 22.5505C10.6396 22.5505 11.1496 22.3605 11.5396 21.9605L21.8996 11.6005C22.6796 10.8205 22.6796 9.55051 21.8996 8.77051L15.2396 2.1105C14.8496 1.7205 14.3396 1.52051 13.8296 1.52051Z" fill="#333333"/>
<path d="M6.70523 9.30161L5.29102 10.7158L13.2884 18.7132L14.7026 17.299L6.70523 9.30161Z" fill="#333333"/>
</svg>
