<svg width="24" height="24" viewBox="0 0 24 24" fill="none" xmlns="http://www.w3.org/2000/svg">
<path d="M13.2702 7.10022L16.8902 10.7202L16.1802 16.3902L4.74023 19.2502L7.60023 7.81024L13.2702 7.10022ZM13.9902 4.99023L6.67023 5.91022C6.26023 5.96022 5.92024 6.26022 5.82024 6.66022L1.99023 21.9902L17.3302 18.1602C17.7302 18.0602 18.0302 17.7202 18.0802 17.3102L18.9902 9.99023L13.9902 4.99023Z" fill="#333333"/>
<path d="M12 14C13.1046 14 14 13.1046 14 12C14 10.8954 13.1046 10 12 10C10.8954 10 10 10.8954 10 12C10 13.1046 10.8954 14 12 14Z" fill="#333333"/>
<path d="M11.2884 11.2966L3.29102 19.2939L4.70523 20.7082L12.7026 12.7108L11.2884 11.2966Z" fill="#333333"/>
<path d="M17.5106 11.8601L16.4806 10.1501L20.3806 7.81007L16.1906 3.62007L13.8506 7.52006L12.1406 6.49006L15.1406 1.49006C15.3006 1.23006 15.5706 1.05005 15.8806 1.01005C16.1906 0.97005 16.4906 1.08006 16.7106 1.30006L22.7106 7.30006C22.9306 7.52006 23.0306 7.82005 23.0006 8.13005C22.9606 8.44005 22.7906 8.71007 22.5206 8.87007L17.5206 11.8701L17.5106 11.8601Z" fill="#333333"/>
</svg>
