<svg width="24" height="24" viewBox="0 0 24 24" fill="none" xmlns="http://www.w3.org/2000/svg">
<path d="M18 4V20H6V4H18ZM18 2H6C4.9 2 4 2.9 4 4V20C4 21.1 4.9 22 6 22H18C19.1 22 20 21.1 20 20V4C20 2.9 19.1 2 18 2Z" fill="#333333"/>
<path d="M18 8H6V10H18V8Z" fill="#333333"/>
<path d="M18 14H6V16H18V14Z" fill="#333333"/>
<path d="M13 5H8V7H13V5Z" fill="#333333"/>
<path d="M13 11H8V13H13V11Z" fill="#333333"/>
<path d="M13 17H8V19H13V17Z" fill="#333333"/>
<path d="M16 7C16.5523 7 17 6.55228 17 6C17 5.44772 16.5523 5 16 5C15.4477 5 15 5.44772 15 6C15 6.55228 15.4477 7 16 7Z" fill="#333333"/>
<path d="M16 13C16.5523 13 17 12.5523 17 12C17 11.4477 16.5523 11 16 11C15.4477 11 15 11.4477 15 12C15 12.5523 15.4477 13 16 13Z" fill="#333333"/>
<path d="M16 19C16.5523 19 17 18.5523 17 18C17 17.4477 16.5523 17 16 17C15.4477 17 15 17.4477 15 18C15 18.5523 15.4477 19 16 19Z" fill="#333333"/>
</svg>
