<svg width="24" height="24" viewBox="0 0 24 24" fill="none" xmlns="http://www.w3.org/2000/svg">
<path d="M4 21C3.45 21 3 20.55 3 20V19C3 18.45 3.45 18 4 18C4.55 18 5 18.45 5 19V20C5 20.55 4.55 21 4 21Z" fill="#333333"/>
<path d="M20 21C19.45 21 19 20.55 19 20V19C19 18.45 19.45 18 20 18C20.55 18 21 18.45 21 19V20C21 20.55 20.55 21 20 21Z" fill="#333333"/>
<path d="M21 11V17H3V11H5V15H19V11H21ZM21 9H19C17.9 9 17 9.9 17 11V13H7V11C7 9.9 6.1 9 5 9H3C1.9 9 1 9.9 1 11V17V18C1 18.55 1.45 19 2 19H22C22.55 19 23 18.55 23 18V11C23 9.9 22.1 9 21 9Z" fill="#333333"/>
<path d="M21 10H19V7C19 5.9 18.1 5 17 5H7C5.9 5 5 5.9 5 7V10H3V7C3 4.79 4.79 3 7 3H17C19.21 3 21 4.79 21 7V10Z" fill="#333333"/>
</svg>
