<svg width="24" height="24" viewBox="0 0 24 24" fill="none" xmlns="http://www.w3.org/2000/svg">
<path d="M16 3C16.55 3 17 3.45 17 4V20C17 20.55 16.55 21 16 21H8C7.45 21 7 20.55 7 20V4C7 3.45 7.45 3 8 3H16ZM16 1H8C6.34 1 5 2.34 5 4V20C5 21.66 6.34 23 8 23H16C17.66 23 19 21.66 19 20V4C19 2.34 17.66 1 16 1Z" fill="#333333"/>
<path d="M17 17H7V19H17V17Z" fill="#333333"/>
<path d="M17 4H7V6H17V4Z" fill="#333333"/>
<path d="M12 21C12.5523 21 13 20.5523 13 20C13 19.4477 12.5523 19 12 19C11.4477 19 11 19.4477 11 20C11 20.5523 11.4477 21 12 21Z" fill="#333333"/>
</svg>
