<svg width="24" height="24" viewBox="0 0 24 24" fill="none" xmlns="http://www.w3.org/2000/svg">
<path d="M12 22.0008C11.45 22.0008 11 21.5508 11 21.0008V14.0107C11 13.4607 11.45 13.0107 12 13.0107C12.55 13.0107 13 13.4607 13 14.0107V21.0008C13 21.5508 12.55 22.0008 12 22.0008Z" fill="#333333"/>
<path d="M13 3C13.55 3 14 3.45 14 4V9H6V4C6 3.45 6.45 3 7 3H13ZM13 1H7C5.34 1 4 2.34 4 4V11H16V4C16 2.34 14.66 1 13 1Z" fill="#333333"/>
<path d="M7 22.0008C6.45 22.0008 6 21.5508 6 21.0008V18.4308L11.48 15.1408C11.95 14.8608 12.57 15.0108 12.85 15.4808C13.13 15.9508 12.98 16.5708 12.51 16.8508L8 19.5608V20.9908C8 21.5408 7.55 21.9908 7 21.9908V22.0008Z" fill="#333333"/>
<path d="M17.0001 22.0001C16.4501 22.0001 16.0001 21.5501 16.0001 21.0001V19.5701L11.4901 16.8601C11.0201 16.5801 10.8601 15.9601 11.1501 15.4901C11.4301 15.0201 12.0501 14.8601 12.5201 15.1501L18.0001 18.4401V21.0101C18.0001 21.5601 17.5501 22.0101 17.0001 22.0101V22.0001Z" fill="#333333"/>
<path d="M18 11C18.55 11 19 11.45 19 12C19 12.55 18.55 13 18 13H7C6.45 13 6 12.55 6 12C6 11.45 6.45 11 7 11H18ZM18 9H7C5.34 9 4 10.34 4 12C4 13.66 5.34 15 7 15H18C19.66 15 21 13.66 21 12C21 10.34 19.66 9 18 9Z" fill="#333333"/>
</svg>
