<svg width="24" height="24" viewBox="0 0 24 24" fill="none" xmlns="http://www.w3.org/2000/svg">
<path d="M11.3966 1.07129L10.6001 2.90582L19.9471 6.96418L20.7436 5.12965L11.3966 1.07129Z" fill="#333333"/>
<path d="M20 7.00034V19.0004H4V7.00034H20ZM20 5.00034H4C2.9 5.00034 2 5.90034 2 7.00034V19.0004C2 20.1004 2.9 21.0004 4 21.0004H20C21.1 21.0004 22 20.1004 22 19.0004V7.00034C22 5.90034 21.1 5.00034 20 5.00034Z" fill="#333333"/>
<path d="M15 12.0003C15.55 12.0003 16 12.4503 16 13.0003C16 13.5503 15.55 14.0003 15 14.0003C14.45 14.0003 14 13.5503 14 13.0003C14 12.4503 14.45 12.0003 15 12.0003ZM15 10.0003C13.34 10.0003 12 11.3403 12 13.0003C12 14.6603 13.34 16.0003 15 16.0003C16.66 16.0003 18 14.6603 18 13.0003C18 11.3403 16.66 10.0003 15 10.0003Z" fill="#333333"/>
<path d="M10 10.0003H6V12.0003H10V10.0003Z" fill="#333333"/>
<path d="M10 14.0003H6V16.0003H10V14.0003Z" fill="#333333"/>
</svg>
