<svg width="24" height="24" viewBox="0 0 24 24" fill="none" xmlns="http://www.w3.org/2000/svg">
<path d="M16 4V6H8V4H16ZM17 2H7C6.45 2 6 2.45 6 3V8H18V3C18 2.45 17.55 2 17 2Z" fill="#333333"/>
<path d="M16 14V20H8V14H16ZM17 12H7C6.45 12 6 12.45 6 13V21C6 21.55 6.45 22 7 22H17C17.55 22 18 21.55 18 21V13C18 12.45 17.55 12 17 12Z" fill="#333333"/>
<path d="M18 8.75C17.31 8.75 16.75 9.31 16.75 10C16.75 10.69 17.31 11.25 18 11.25C18.69 11.25 19.25 10.69 19.25 10C19.25 9.31 18.69 8.75 18 8.75Z" fill="#333333"/>
<path d="M20 6H4C2.9 6 2 6.9 2 8V15C2 16.1 2.9 17 4 17H8V15H4V8H20V15H16V17H20C21.1 17 22 16.1 22 15V8C22 6.9 21.1 6 20 6Z" fill="#333333"/>
</svg>
