<svg width="24" height="24" viewBox="0 0 24 24" fill="none" xmlns="http://www.w3.org/2000/svg">
<path d="M18 5V21H6V5H18ZM18 3H6C4.9 3 4 3.9 4 5V21C4 22.1 4.9 23 6 23H18C19.1 23 20 22.1 20 21V5C20 3.9 19.1 3 18 3Z" fill="#333333"/>
<path d="M13 14C13.55 14 14 14.45 14 15V17H10V15C10 14.45 10.45 14 11 14H13ZM13 12H11C9.34 12 8 13.34 8 15V17C8 18.1 8.9 19 10 19H14C15.1 19 16 18.1 16 17V15C16 13.34 14.66 12 13 12Z" fill="#333333"/>
<path d="M14 1H10C9.45 1 9 1.45 9 2V4H15V2C15 1.45 14.55 1 14 1Z" fill="#333333"/>
<path d="M12 9C12.55 9 13 9.45 13 10C13 10.55 12.55 11 12 11C11.45 11 11 10.55 11 10C11 9.45 11.45 9 12 9ZM12 7C10.34 7 9 8.34 9 10C9 11.66 10.34 13 12 13C13.66 13 15 11.66 15 10C15 8.34 13.66 7 12 7Z" fill="#333333"/>
</svg>
