<svg width="24" height="24" viewBox="0 0 24 24" fill="none" xmlns="http://www.w3.org/2000/svg">
<path d="M16 7V17H3V7H16ZM16 5H3C1.9 5 1 5.9 1 7V17C1 18.1 1.9 19 3 19H16C17.1 19 18 18.1 18 17V7C18 5.9 17.1 5 16 5Z" fill="#333333"/>
<path d="M21 8.77997V15.23L18 13.69V10.33L21 8.78996M21.59 6.45996C21.31 6.45996 21.03 6.51996 20.78 6.64996L16 9.10995V14.91L20.78 17.37C21.03 17.5 21.32 17.56 21.59 17.56C22.32 17.56 23 17.15 23 16.56V7.45996C23 6.86996 22.32 6.45996 21.59 6.45996Z" fill="#333333"/>
</svg>
