<svg width="24" height="24" viewBox="0 0 24 24" fill="none" xmlns="http://www.w3.org/2000/svg">
<path d="M20 5.5H18L16 3.5H8L6 5.5H4C2.9 5.5 2 6.4 2 7.5V18.5C2 19.6 2.9 20.5 4 20.5H20C21.1 20.5 22 19.6 22 18.5V7.5C22 6.4 21.1 5.5 20 5.5ZM20 18.5H4V7.5H6.83L7.42 6.91L8.83 5.5H15.17L16.58 6.91L17.17 7.5H20V18.5Z" fill="#333333"/>
<path d="M12 8.5C9.79 8.5 8 10.29 8 12.5C8 14.71 9.79 16.5 12 16.5C14.21 16.5 16 14.71 16 12.5C16 10.29 14.21 8.5 12 8.5ZM12 14.5C10.9 14.5 10 13.6 10 12.5C10 11.4 10.9 10.5 12 10.5C13.1 10.5 14 11.4 14 12.5C14 13.6 13.1 14.5 12 14.5Z" fill="#333333"/>
</svg>
