<svg width="24" height="24" viewBox="0 0 24 24" fill="none" xmlns="http://www.w3.org/2000/svg">
<path d="M15.9998 10C15.0898 10 14.2398 10.26 13.5098 10.69C13.9198 11.21 14.2598 11.79 14.5098 12.42C14.9498 12.16 15.4598 12 16.0098 12C17.6598 12 19.0098 13.35 19.0098 15V20H15.0098C15.0098 20.73 14.7998 21.41 14.4498 22H19.0098C20.1098 22 21.0098 21.1 21.0098 20V15C21.0098 12.24 18.7698 10 16.0098 10H15.9998Z" fill="#333333"/>
<path d="M8 12C9.65 12 11 13.35 11 15V20H5V15C5 13.35 6.35 12 8 12ZM8 10C5.24 10 3 12.24 3 15V20C3 21.1 3.9 22 5 22H11C12.1 22 13 21.1 13 20V15C13 12.24 10.76 10 8 10Z" fill="#333333"/>
<path d="M8 5C8.55 5 9 5.45 9 6C9 6.55 8.55 7 8 7C7.45 7 7 6.55 7 6C7 5.45 7.45 5 8 5ZM8 3C6.34 3 5 4.34 5 6C5 7.66 6.34 9 8 9C9.66 9 11 7.66 11 6C11 4.34 9.66 3 8 3Z" fill="#333333"/>
<path d="M16 5C16.55 5 17 5.45 17 6C17 6.55 16.55 7 16 7C15.45 7 15 6.55 15 6C15 5.45 15.45 5 16 5ZM16 3C14.34 3 13 4.34 13 6C13 7.66 14.34 9 16 9C17.66 9 19 7.66 19 6C19 4.34 17.66 3 16 3Z" fill="#333333"/>
</svg>
