<svg width="24" height="24" viewBox="0 0 24 24" fill="none" xmlns="http://www.w3.org/2000/svg">
<path d="M18.0003 9C17.3703 9 16.7803 9.15998 16.2503 9.41998C16.0503 10.01 15.7403 10.55 15.3203 11.01C15.6903 11.26 16.0303 11.55 16.3403 11.88C16.7003 11.35 17.3103 11 17.9903 11C19.0903 11 19.9903 11.9 19.9903 13V17H17.9903V19H19.9903C21.0903 19 21.9903 18.1 21.9903 17V13C21.9903 10.79 20.2003 9 17.9903 9H18.0003Z" fill="#333333"/>
<path d="M12 7C12.55 7 13 7.45 13 8C13 8.55 12.55 9 12 9C11.45 9 11 8.55 11 8C11 7.45 11.45 7 12 7ZM12 5C10.34 5 9 6.34 9 8C9 9.66 10.34 11 12 11C13.66 11 15 9.66 15 8C15 6.34 13.66 5 12 5Z" fill="#333333"/>
<path d="M6 4C6.55 4 7 4.45 7 5C7 5.55 6.55 6 6 6C5.45 6 5 5.55 5 5C5 4.45 5.45 4 6 4ZM6 2C4.34 2 3 3.34 3 5C3 6.66 4.34 8 6 8C7.66 8 9 6.66 9 5C9 3.34 7.66 2 6 2Z" fill="#333333"/>
<path d="M18 4C18.55 4 19 4.45 19 5C19 5.55 18.55 6 18 6C17.45 6 17 5.55 17 5C17 4.45 17.45 4 18 4ZM18 2C16.34 2 15 3.34 15 5C15 6.66 16.34 8 18 8C19.66 8 21 6.66 21 5C21 3.34 19.66 2 18 2Z" fill="#333333"/>
<path d="M12 14C13.1 14 14 14.9 14 16V20H10V16C10 14.9 10.9 14 12 14ZM12 12C9.79 12 8 13.79 8 16V20C8 21.1 8.9 22 10 22H14C15.1 22 16 21.1 16 20V16C16 13.79 14.21 12 12 12Z" fill="#333333"/>
<path d="M6.00024 17H4.00024V13C4.00024 11.9 4.90024 11 6.00024 11C6.69024 11 7.29024 11.35 7.65024 11.88C7.96024 11.55 8.30024 11.26 8.67024 11.01C8.26024 10.56 7.95023 10.01 7.74023 9.41998C7.21023 9.15998 6.62023 9 5.99023 9C3.78023 9 1.99023 10.79 1.99023 13V17C1.99023 18.1 2.89023 19 3.99023 19H5.99023V17H6.00024Z" fill="#333333"/>
</svg>
