<svg width="24" height="24" viewBox="0 0 24 24" fill="none" xmlns="http://www.w3.org/2000/svg">
<path d="M12 4C10.9 4 10 4.9 10 6C10 7.1 10.9 8 12 8C13.1 8 14 7.1 14 6C14 4.9 13.1 4 12 4Z" fill="#333333"/>
<path d="M7 1C5.9 1 5 1.9 5 3C5 4.1 5.9 5 7 5C8.1 5 9 4.1 9 3C9 1.9 8.1 1 7 1Z" fill="#333333"/>
<path d="M17 1C15.9 1 15 1.9 15 3C15 4.1 15.9 5 17 5C18.1 5 19 4.1 19 3C19 1.9 18.1 1 17 1Z" fill="#333333"/>
<path d="M17 14C18.1 14 19 14.9 19 16V20H15V16C15 14.9 15.9 14 17 14ZM17 12C14.79 12 13 13.79 13 16V20C13 21.1 13.9 22 15 22H19C20.1 22 21 21.1 21 20V16C21 13.79 19.21 12 17 12Z" fill="#333333"/>
<path d="M7 14C8.1 14 9 14.9 9 16V20H5V16C5 14.9 5.9 14 7 14ZM7 12C4.79 12 3 13.79 3 16V20C3 21.1 3.9 22 5 22H9C10.1 22 11 21.1 11 20V16C11 13.79 9.21 12 7 12Z" fill="#333333"/>
<path d="M17 7C15.9 7 15 7.9 15 9C15 10.1 15.9 11 17 11C18.1 11 19 10.1 19 9C19 7.9 18.1 7 17 7Z" fill="#333333"/>
<path d="M7 7C5.9 7 5 7.9 5 9C5 10.1 5.9 11 7 11C8.1 11 9 10.1 9 9C9 7.9 8.1 7 7 7Z" fill="#333333"/>
</svg>
