<svg width="24" height="24" viewBox="0 0 24 24" fill="none" xmlns="http://www.w3.org/2000/svg">
<path d="M12 3C13.1 3 14 3.9 14 5C14 6.1 13.1 7 12 7C10.9 7 10 6.1 10 5C10 3.9 10.9 3 12 3ZM12 1C9.79 1 8 2.79 8 5C8 7.21 9.79 9 12 9C14.21 9 16 7.21 16 5C16 2.79 14.21 1 12 1Z" fill="#333333"/>
<path d="M19.9695 14.0002H19.9995L19.9695 13.9902V14.0002Z" fill="#333333"/>
<path fill-rule="evenodd" clip-rule="evenodd" d="M19.9695 14.0002H17.9995V15.1802C17.6495 15.3002 17.3395 15.4902 17.0595 15.7202L16.0295 15.1302L15.0295 16.8602L16.0495 17.4502C16.0195 17.6302 15.9895 17.8102 15.9895 18.0002C15.9895 18.1902 16.0095 18.3702 16.0395 18.5502L15.0195 19.1402L16.0195 20.8702L17.0495 20.2802C17.3295 20.5102 17.6395 20.7002 17.9895 20.8202V22.0002H19.9895V20.8202C20.3395 20.7002 20.6495 20.5102 20.9195 20.2702L21.9495 20.8602L22.9495 19.1302L21.9295 18.5402C21.9595 18.3602 21.9795 18.1802 21.9795 17.9902C21.9795 17.8002 21.9595 17.6202 21.9195 17.4402L22.9395 16.8502L21.9395 15.1202L20.9095 15.7102C20.6295 15.4802 20.3195 15.2902 19.9695 15.1702V14.0002ZM20 18C20 18.5523 19.5523 19 19 19C18.4477 19 18 18.5523 18 18C18 17.4477 18.4477 17 19 17C19.5523 17 20 17.4477 20 18Z" fill="#333333"/>
<path d="M12.96 21H7V15C7 13.35 8.35 12 10 12H14C14.72 12 15.38 12.27 15.89 12.69L17.31 11.28C16.43 10.49 15.28 10 14 10H10C7.24 10 5 12.24 5 15V21C5 22.1 5.9 23 7 23H14.59L12.96 21Z" fill="#333333"/>
</svg>
