<svg width="24" height="24" viewBox="0 0 24 24" fill="none" xmlns="http://www.w3.org/2000/svg">
<path d="M12 1C10.9 1 10 1.9 10 3C10 4.1 10.9 5 12 5C13.1 5 14 4.1 14 3C14 1.9 13.1 1 12 1Z" fill="#333333"/>
<path d="M12 19C10.9 19 10 19.9 10 21C10 22.1 10.9 23 12 23C13.1 23 14 22.1 14 21C14 19.9 13.1 19 12 19Z" fill="#333333"/>
<path d="M19 6C17.9 6 17 6.9 17 8C17 9.1 17.9 10 19 10C20.1 10 21 9.1 21 8C21 6.9 20.1 6 19 6Z" fill="#333333"/>
<path d="M19 14C17.9 14 17 14.9 17 16C17 17.1 17.9 18 19 18C20.1 18 21 17.1 21 16C21 14.9 20.1 14 19 14Z" fill="#333333"/>
<path d="M5 6C3.9 6 3 6.9 3 8C3 9.1 3.9 10 5 10C6.1 10 7 9.1 7 8C7 6.9 6.1 6 5 6Z" fill="#333333"/>
<path d="M5 14C3.9 14 3 14.9 3 16C3 17.1 3.9 18 5 18C6.1 18 7 17.1 7 16C7 14.9 6.1 14 5 14Z" fill="#333333"/>
<path d="M12 8C13.1 8 14 8.9 14 10V14C14 15.1 13.1 16 12 16C10.9 16 10 15.1 10 14V10C10 8.9 10.9 8 12 8ZM12 6C9.79 6 8 7.79 8 10V14C8 16.21 9.79 18 12 18C14.21 18 16 16.21 16 14V10C16 7.79 14.21 6 12 6Z" fill="#333333"/>
</svg>
