<svg width="24" height="24" viewBox="0 0 24 24" fill="none" xmlns="http://www.w3.org/2000/svg">
<path d="M23.0001 17.9999H13.5801L16.1701 15.4099C16.9501 14.6299 16.9501 13.3599 16.1701 12.5799L13.0001 9.40991L12.1201 10.2899C10.9501 11.4599 9.05013 11.4599 7.88013 10.2899L7.71008 10.1199C7.14008 9.54993 6.83008 8.79988 6.83008 7.99988C6.83008 7.19988 7.14008 6.44988 7.71008 5.87988L10.8201 2.7699C11.4001 2.1899 12.2601 2.01991 13.0201 2.34991L18.9001 4.86993L23.0001 2.12988V17.9999ZM18.2201 15.9999H21.0001V5.86993L19.1001 7.12988L12.2301 4.17993L9.12012 7.28992C8.93012 7.47992 8.83008 7.72988 8.83008 7.99988C8.83008 8.26988 8.93012 8.5199 9.12012 8.7099L9.2901 8.87988C9.6801 9.26988 10.3201 9.26988 10.7101 8.87988L13.0001 6.5899L17.5901 11.1799C18.9001 12.4899 19.1101 14.4799 18.2301 16.0099L18.2201 15.9999Z" fill="#333333"/>
<path d="M11 22.17C10.23 22.17 9.46 21.88 8.88 21.29L3.58997 16H1V6H8V8H3V14H4.40997L10.29 19.88C10.68 20.27 11.31 20.27 11.7 19.88L16.16 15.42L17.57 16.83L13.11 21.29C12.53 21.87 11.76 22.17 10.99 22.17H11Z" fill="#333333"/>
</svg>
