<svg width="24" height="24" viewBox="0 0 24 24" fill="none" xmlns="http://www.w3.org/2000/svg">
<path d="M17 13H15V10H12V8H17V13Z" fill="#333333"/>
<path d="M18.2298 21H5.78976C4.25976 21 3.00977 19.75 3.00977 18.22V15.1L8.04977 10.62L10.5098 13.08L15.3098 8.29L16.7198 9.71L10.5098 15.91L7.96979 13.37L5.00977 16V18.22C5.00977 18.65 5.35976 19 5.78976 19H18.2298C18.6598 19 19.0098 18.65 19.0098 18.22V5.78C19.0098 5.35 18.6598 5 18.2298 5H5.78976C5.35976 5 5.00977 5.35 5.00977 5.78V10.23H3.00977V5.78C3.00977 4.25 4.25976 3 5.78976 3H18.2298C19.7598 3 21.0098 4.25 21.0098 5.78V18.22C21.0098 19.75 19.7598 21 18.2298 21Z" fill="#333333"/>
</svg>
