<svg width="24" height="24" viewBox="0 0 24 24" fill="none" xmlns="http://www.w3.org/2000/svg">
<path d="M12 4.00977C16.41 4.00977 20 7.59977 20 12.0098C20 16.4198 16.41 20.0098 12 20.0098C7.59 20.0098 4 16.4198 4 12.0098C4 7.59977 7.59 4.00977 12 4.00977ZM12 2.00977C6.48 2.00977 2 6.48977 2 12.0098C2 17.5298 6.48 22.0098 12 22.0098C17.52 22.0098 22 17.5298 22 12.0098C22 6.48977 17.52 2.00977 12 2.00977Z" fill="#333333"/>
<path d="M12 10C13.1 10 14 10.9 14 12C14 13.1 13.1 14 12 14C10.9 14 10 13.1 10 12C10 10.9 10.9 10 12 10ZM12 8C9.79 8 8 9.79 8 12C8 14.21 9.79 16 12 16C14.21 16 16 14.21 16 12C16 9.79 14.21 8 12 8Z" fill="#333333"/>
<path d="M13 3H11V9H13V3Z" fill="#333333"/>
<path d="M21 11H15V13H21V11Z" fill="#333333"/>
<path d="M14.7162 13.3214L13.3018 14.7354L17.4659 18.9009L18.8803 17.487L14.7162 13.3214Z" fill="#333333"/>
</svg>
