<svg width="24" height="24" viewBox="0 0 24 24" fill="none" xmlns="http://www.w3.org/2000/svg">
<path d="M20 7V18H4V7H20ZM20 5H4C2.9 5 2 5.9 2 7V18C2 19.1 2.9 20 4 20H20C21.1 20 22 19.1 22 18V7C22 5.9 21.1 5 20 5Z" fill="#333333"/>
<path d="M20 7V11.67C20 12.39 19.54 13 19 13H5C4.46 13 4 12.39 4 11.67V7H20ZM20 5H4C2.9 5 2 5.9 2 7V11.67C2 13.51 3.34 15 5 15H19C20.66 15 22 13.51 22 11.67V7C22 5.9 21.1 5 20 5Z" fill="#333333"/>
<path d="M14 3H10C9.45 3 9 3.45 9 4V6H15V4C15 3.45 14.55 3 14 3Z" fill="#333333"/>
<path d="M7 9C6.45 9 6 9.45 6 10V11C6 11.55 6.45 12 7 12C7.55 12 8 11.55 8 11V10C8 9.45 7.55 9 7 9Z" fill="#333333"/>
<path d="M17 9C16.45 9 16 9.45 16 10V11C16 11.55 16.45 12 17 12C17.55 12 18 11.55 18 11V10C18 9.45 17.55 9 17 9Z" fill="#333333"/>
</svg>
