<svg width="24" height="24" viewBox="0 0 24 24" fill="none" xmlns="http://www.w3.org/2000/svg">
<path d="M12.9998 15.0002H10.9998V14.2302C10.9998 13.9002 11.0698 13.5802 11.1998 13.2802C11.6498 12.2902 12.4898 11.8602 13.1698 11.5202C13.5298 11.3402 13.8698 11.1702 14.0798 10.9502C14.5298 10.4802 14.4198 9.68025 14.0698 9.20025C13.4298 8.33025 12.1698 8.18025 11.2698 8.48025C10.8898 8.61025 10.0098 9.00024 10.0098 10.0002H8.00977C8.00977 8.43024 9.01977 7.12025 10.6498 6.58025C12.5398 5.96025 14.5998 6.55025 15.6898 8.01025C16.6798 9.35025 16.6198 11.2003 15.5398 12.3303C15.0898 12.8003 14.5498 13.0702 14.0798 13.3102C13.5198 13.5902 13.1898 13.7702 13.0398 14.1002C13.0198 14.1402 13.0098 14.1802 13.0098 14.2202V15.0002H12.9998Z" fill="#333333"/>
<path d="M11.9998 18.0302C12.552 18.0302 12.9998 17.5825 12.9998 17.0302C12.9998 16.478 12.552 16.0302 11.9998 16.0302C11.4475 16.0302 10.9998 16.478 10.9998 17.0302C10.9998 17.5825 11.4475 18.0302 11.9998 18.0302Z" fill="#333333"/>
<path d="M12 4C16.41 4 20 7.59 20 12C20 16.41 16.41 20 12 20C7.59 20 4 16.41 4 12C4 7.59 7.59 4 12 4ZM12 2C6.48 2 2 6.48 2 12C2 17.52 6.48 22 12 22C17.52 22 22 17.52 22 12C22 6.48 17.52 2 12 2Z" fill="#333333"/>
</svg>
