<svg width="24" height="24" viewBox="0 0 24 24" fill="none" xmlns="http://www.w3.org/2000/svg">
<path d="M12 17.0303C12.5523 17.0303 13 16.5826 13 16.0303C13 15.478 12.5523 15.0303 12 15.0303C11.4477 15.0303 11 15.478 11 16.0303C11 16.5826 11.4477 17.0303 12 17.0303Z" fill="#333333"/>
<path d="M12 4C16.41 4 20 7.59 20 12C20 16.41 16.41 20 12 20C7.59 20 4 16.41 4 12C4 7.59 7.59 4 12 4ZM12 2C6.48 2 2 6.48 2 12C2 17.52 6.48 22 12 22C17.52 22 22 17.52 22 12C22 6.48 17.52 2 12 2Z" fill="#333333"/>
<path d="M13 6H11V14H13V6Z" fill="#333333"/>
</svg>
