<svg width="24" height="24" viewBox="0 0 24 24" fill="none" xmlns="http://www.w3.org/2000/svg">
<path d="M12.7 16.6998L11.29 15.2898C11.29 15.2898 13.43 13.1398 14.58 11.9998L11.29 8.70978L12.7 7.2998L16.9901 11.5898V11.9998C16.9901 12.2731 15.56 13.8431 12.7 16.7098V16.6998Z" fill="#333333"/>
<path d="M12 4.07031C16.41 4.07031 20 7.66031 20 12.0703C20 16.4803 16.41 20.0703 12 20.0703C7.59 20.0703 4 16.4803 4 12.0703C4 7.66031 7.59 4.07031 12 4.07031ZM12 2.07031C6.48 2.07031 2 6.55031 2 12.0703C2 17.5903 6.48 22.0703 12 22.0703C17.52 22.0703 22 17.5903 22 12.0703C22 6.55031 17.52 2.07031 12 2.07031Z" fill="#333333"/>
<path d="M16 11H7V13H16V11Z" fill="#333333"/>
</svg>
