<svg width="24" height="24" viewBox="0 0 24 24" fill="none" xmlns="http://www.w3.org/2000/svg">
<path fill-rule="evenodd" clip-rule="evenodd" d="M19.9902 12.0703C19.9902 7.66031 16.4002 4.07031 11.9902 4.07031C7.58023 4.07031 3.99023 7.66031 3.99023 12.0703C3.99023 16.4803 7.58023 20.0703 11.9902 20.0703C16.4002 20.0703 19.9902 16.4803 19.9902 12.0703ZM1.99023 12.0703C1.99023 6.55031 6.47023 2.07031 11.9902 2.07031C17.5102 2.07031 21.9902 6.55031 21.9902 12.0703C21.9902 17.5903 17.5102 22.0703 11.9902 22.0703C6.47023 22.0703 1.99023 17.5903 1.99023 12.0703ZM16.3333 11H18V13H15.8889L15 17H13L12 12.49L11 17H9L8.11111 13H6V11H7.66666L7 8H9L10 12.49L10.99 8H11H12.99H13L14 12.49L15 8H17L16.3333 11Z" fill="#333333"/>
</svg>
