<svg width="24" height="24" viewBox="0 0 24 24" fill="none" xmlns="http://www.w3.org/2000/svg">
<path d="M12.0107 4C16.4207 4 20.0107 7.59 20.0107 12C20.0107 16.41 16.4207 20 12.0107 20C7.60074 20 4.01074 16.41 4.01074 12C4.01074 7.59 7.60074 4 12.0107 4ZM12.0107 2C6.49074 2 2.01074 6.48 2.01074 12C2.01074 17.52 6.49074 22 12.0107 22C17.5307 22 22.0107 17.52 22.0107 12C22.0107 6.48 17.5307 2 12.0107 2Z" fill="#333333"/>
<path d="M15.3007 16.71L11.0107 12.41V7H13.0107V11.59L16.7108 15.29L15.3007 16.71Z" fill="#333333"/>
</svg>
