<svg width="24" height="24" viewBox="0 0 24 24" fill="none" xmlns="http://www.w3.org/2000/svg">
<path d="M17.7064 4.87756L4.9502 17.6338L6.36441 19.048L19.1206 6.29177L17.7064 4.87756Z" fill="#333333"/>
<path d="M12 4.07031C16.41 4.07031 20 7.66031 20 12.0703C20 16.4803 16.41 20.0703 12 20.0703C7.59 20.0703 4 16.4803 4 12.0703C4 7.66031 7.59 4.07031 12 4.07031ZM12 2.07031C6.48 2.07031 2 6.55031 2 12.0703C2 17.5903 6.48 22.0703 12 22.0703C17.52 22.0703 22 17.5903 22 12.0703C22 6.55031 17.52 2.07031 12 2.07031Z" fill="#333333"/>
</svg>
