<svg width="24" height="24" viewBox="0 0 24 24" fill="none" xmlns="http://www.w3.org/2000/svg">
<path d="M9.00057 15.9993C8.74057 15.9993 8.49055 15.8993 8.29055 15.7093C7.90055 15.3193 7.90055 14.6893 8.29055 14.2993L14.2905 8.29934C14.6805 7.90934 15.3106 7.90934 15.7006 8.29934C16.0906 8.68934 16.0906 9.31934 15.7006 9.70934L9.70055 15.7093C9.50055 15.9093 9.25056 15.9993 8.99056 15.9993H9.00057Z" fill="#333333"/>
<path d="M17.7108 14.7096L16.3008 13.2996L18.8008 10.7996C20.3408 9.25957 20.3408 6.74957 18.8008 5.20957C17.2608 3.66957 14.7508 3.66957 13.2108 5.20957L10.7108 7.70957L9.30078 6.29957L11.8008 3.79957C14.1208 1.47957 17.8908 1.47957 20.2108 3.79957C22.5308 6.11957 22.5308 9.88957 20.2108 12.2096L17.7108 14.7096Z" fill="#333333"/>
<path d="M8.0008 21.9498C6.4808 21.9498 4.95078 21.3698 3.79078 20.2098C1.47078 17.8898 1.47078 14.1198 3.79078 11.7998L6.29078 9.2998L7.70078 10.7098L5.20078 13.2098C3.66078 14.7498 3.66078 17.2598 5.20078 18.7998C6.74078 20.3398 9.25078 20.3398 10.7908 18.7998L13.2908 16.2998L14.7008 17.7098L12.2008 20.2098C11.0408 21.3698 9.52079 21.9498 7.99079 21.9498H8.0008Z" fill="#333333"/>
</svg>
