<svg width="24" height="24" viewBox="0 0 24 24" fill="none" xmlns="http://www.w3.org/2000/svg">
<path fill-rule="evenodd" clip-rule="evenodd" d="M9.08664 5.18651C8.22428 6.07383 7.35587 7.50805 6.75858 9.28963L6.75534 9.29929C5.74022 12.2473 5.75033 14.3788 6.11772 15.8818C6.18984 15.7847 6.26165 15.6862 6.33314 15.5865C7.83388 13.4927 9.07523 10.9908 9.82944 8.74653C10.623 6.31921 10.6115 5.03487 10.5026 4.44106C10.4907 4.37621 10.4777 4.31992 10.4645 4.27142C10.1684 4.33009 9.70398 4.55131 9.08664 5.18651ZM11.2029 3.09723L11.8891 2.05244L11.7624 1.96923L11.6195 1.91871C9.98554 1.34102 8.3982 2.30782 7.29384 3.44414C6.11755 4.65447 5.07902 6.43661 4.38988 8.49009C3.02832 12.4469 3.21132 15.4088 4.02481 17.5612C4.08858 17.7299 4.15588 17.8928 4.22613 18.0498C3.33593 18.8967 2.43613 19.5104 1.57178 19.8256L2.42827 22.1743C3.54636 21.7666 4.60958 21.0656 5.59562 20.1869C6.10788 20.7674 6.60902 21.1685 6.97368 21.4206L6.97688 21.4228C7.34507 21.6756 7.79536 21.7843 8.24179 21.7229C8.68768 21.6616 9.0901 21.4363 9.37611 21.0976L11.5982 18.4181L12.2452 20.4048C12.3375 20.6921 12.5045 20.9524 12.7324 21.1567C12.9624 21.3628 13.2454 21.5037 13.5523 21.5612C13.8596 21.6188 14.1761 21.59 14.4672 21.4788C14.758 21.3678 15.0104 21.1797 15.1998 20.9379L15.209 20.9261L16.9498 18.5896L17.5173 20.4432L17.5208 20.4545C17.6126 20.7444 17.7804 21.0072 18.01 21.213C18.24 21.4191 18.523 21.56 18.8299 21.6175C19.1372 21.6751 19.4537 21.6462 19.7448 21.5351C20.0356 21.424 20.288 21.236 20.4774 20.9941L20.4872 20.9816L23.0036 17.5931L20.9965 16.1026L19.4432 18.1942L18.8767 16.3438C18.7894 16.0479 18.6228 15.7783 18.391 15.5672C18.1551 15.3522 17.8615 15.2069 17.5431 15.1518C17.2243 15.0967 16.8973 15.1349 16.6008 15.2606C16.3126 15.3827 16.067 15.5813 15.8876 15.8309L14.1461 18.1683L13.528 16.2708C13.4401 15.9852 13.2778 15.7249 13.0543 15.5193C12.8239 15.3073 12.5381 15.1624 12.2276 15.1034C11.9169 15.0443 11.5961 15.0742 11.3017 15.1893C11.0196 15.2996 10.7753 15.4828 10.591 15.7162L7.89625 18.9658C7.72027 18.806 7.52855 18.6102 7.33578 18.3747C7.69445 17.9457 8.03806 17.4992 8.36509 17.0429C10.0189 14.7356 11.3717 12.0071 12.2009 9.53774L12.204 9.52848C13.0692 6.88392 13.1741 5.14821 12.9615 3.98983C12.8536 3.40202 12.6635 2.96213 12.4505 2.63929C12.3449 2.47931 12.2374 2.35369 12.1387 2.25679C12.0896 2.20854 12.0431 2.16793 12.0009 2.13408C11.9798 2.11717 11.9598 2.10199 11.9411 2.08841C11.9318 2.08163 11.9228 2.07525 11.9141 2.06926L11.9013 2.06056L11.8952 2.05643L11.8921 2.05442C11.8906 2.05342 11.8891 2.05244 11.2029 3.09723Z" fill="#6B758F"/>
</svg>
