<svg width="24" height="24" viewBox="0 0 24 24" fill="none" xmlns="http://www.w3.org/2000/svg">
<path d="M12 19.75C16.2802 19.75 19.75 16.2802 19.75 12C19.75 7.71979 16.2802 4.25 12 4.25C7.71979 4.25 4.25 7.71979 4.25 12C4.25 16.2802 7.71979 19.75 12 19.75Z" fill="#C7CED5"/>
<path d="M10 2H14C14.2652 2 14.5196 2.10536 14.7071 2.29289C14.8946 2.48043 15 2.73478 15 3V5H9V3C9 2.73478 9.10536 2.48043 9.29289 2.29289C9.48043 2.10536 9.73478 2 10 2Z" fill="#C7CED5"/>
<path d="M2.34082 8.73944L4.34082 5.27534C4.47343 5.04566 4.69187 4.87805 4.94805 4.80941C5.20423 4.74077 5.47716 4.77671 5.70685 4.90932L7.4389 5.90932L4.4389 11.1055L2.70685 10.1055C2.47716 9.97286 2.30958 9.75444 2.24094 9.49826C2.1723 9.24208 2.20821 8.96913 2.34082 8.73944Z" fill="#C7CED5"/>
<path d="M4.3418 18.7394L2.3418 15.2753C2.20919 15.0457 2.17326 14.7727 2.2419 14.5165C2.31054 14.2603 2.47814 14.0419 2.70782 13.9093L4.43987 12.9093L7.43987 18.1055L5.70782 19.1055C5.47814 19.2381 5.20519 19.274 4.94901 19.2053C4.69283 19.1367 4.47441 18.9691 4.3418 18.7394Z" fill="#C7CED5"/>
<path d="M13.9902 22H9.99023C9.72502 22 9.47068 21.8946 9.28314 21.7071C9.09561 21.5196 8.99023 21.2652 8.99023 21V19H14.9902V21C14.9902 21.2652 14.8849 21.5196 14.6974 21.7071C14.5098 21.8946 14.2555 22 13.9902 22Z" fill="#C7CED5"/>
<path d="M21.6533 15.2762L19.6533 18.7403C19.5207 18.97 19.3023 19.1376 19.0461 19.2062C18.7899 19.2749 18.517 19.2389 18.2873 19.1063L16.5552 18.1063L19.5552 12.9102L21.2873 13.9102C21.517 14.0428 21.6846 14.2612 21.7532 14.5174C21.8218 14.7735 21.7859 15.0465 21.6533 15.2762Z" fill="#C7CED5"/>
<path d="M19.6543 5.27618L21.6543 8.74028C21.7869 8.96997 21.8228 9.24294 21.7542 9.49912C21.6855 9.7553 21.518 9.9737 21.2883 10.1063L19.5562 11.1063L16.5562 5.91016L18.2883 4.91016C18.518 4.77755 18.7909 4.74163 19.0471 4.81028C19.3033 4.87892 19.5217 5.0465 19.6543 5.27618Z" fill="#C7CED5"/>
<path d="M12 14.5C13.3807 14.5 14.5 13.3807 14.5 12C14.5 10.6193 13.3807 9.5 12 9.5C10.6193 9.5 9.5 10.6193 9.5 12C9.5 13.3807 10.6193 14.5 12 14.5Z" fill="white"/>
</svg>
