<svg width="24" height="24" viewBox="0 0 24 24" fill="none" xmlns="http://www.w3.org/2000/svg">
<g clip-path="url(#clip0_635_2618)">
<path d="M7.96997 21.89C6.23997 21.89 4.50997 21.23 3.19997 19.92C1.88997 18.61 1.21997 16.95 1.21997 15.15C1.21997 13.35 1.91997 11.65 3.19997 10.38L9.90997 3.65001L11.68 5.42001L4.95997 12.14C4.15997 12.94 3.71997 14.01 3.71997 15.15C3.71997 16.29 4.15997 17.35 4.95997 18.16C6.61997 19.82 9.30997 19.82 10.97 18.16L19.31 9.82001C20.27 8.86001 20.27 7.30001 19.31 6.35001C18.35 5.39001 16.79 5.39001 15.83 6.35001L7.83997 14.34C7.69997 14.48 7.61997 14.67 7.61997 14.87C7.61997 15.07 7.69997 15.26 7.83997 15.4C8.12997 15.69 8.60997 15.69 8.89997 15.4L16.68 7.62001L18.45 9.39001L10.67 17.17C9.39997 18.44 7.33997 18.44 6.06997 17.17C5.45997 16.56 5.11997 15.74 5.11997 14.87C5.11997 14 5.45997 13.19 6.06997 12.57L14.06 4.58001C15.99 2.65001 19.14 2.65001 21.07 4.58001C23 6.51001 23 9.66001 21.07 11.59L12.73 19.93C11.41 21.25 9.68997 21.9 7.95997 21.9L7.96997 21.89Z" fill="#C7CED5"/>
</g>
<defs>
<clipPath id="clip0_635_2618">
<rect width="24" height="24" fill="white"/>
</clipPath>
</defs>
</svg>
