<svg width="24" height="24" viewBox="0 0 24 24" fill="none" xmlns="http://www.w3.org/2000/svg">
<path d="M12.2598 2H11.7598C11.2075 2 10.7598 2.44772 10.7598 3V6C10.7598 6.55228 11.2075 7 11.7598 7H12.2598C12.8121 7 13.2598 6.55228 13.2598 6V3C13.2598 2.44772 12.8121 2 12.2598 2Z" fill="#5096FF"/>
<path d="M5.11339 4.74891L4.75984 5.10246C4.36932 5.49299 4.36932 6.12615 4.75984 6.51668L6.88116 8.638C7.27169 9.02852 7.90485 9.02852 8.29537 8.638L8.64893 8.28444C9.03945 7.89392 9.03945 7.26075 8.64893 6.87023L6.52761 4.74891C6.13708 4.35839 5.50392 4.35839 5.11339 4.74891Z" fill="#DBECFF"/>
<path d="M2 11.75V12.25C2 12.8023 2.44772 13.25 3 13.25H6C6.55228 13.25 7 12.8023 7 12.25V11.75C7 11.1977 6.55228 10.75 6 10.75H3C2.44772 10.75 2 11.1977 2 11.75Z" fill="#DBECFF"/>
<path d="M4.75868 18.8915L5.11223 19.245C5.50275 19.6356 6.13592 19.6356 6.52644 19.245L8.64776 17.1237C9.03829 16.7332 9.03829 16.1 8.64776 15.7095L8.29421 15.356C7.90369 14.9654 7.27052 14.9654 6.88 15.356L4.75868 17.4773C4.36815 17.8678 4.36815 18.501 4.75868 18.8915Z" fill="#88BFFF"/>
<path d="M11.7393 22H12.2393C12.7915 22 13.2393 21.5523 13.2393 21V18C13.2393 17.4477 12.7915 17 12.2393 17H11.7393C11.187 17 10.7393 17.4477 10.7393 18V21C10.7393 21.5523 11.187 22 11.7393 22Z" fill="#88BFFF"/>
<path d="M18.8983 19.254L19.2519 18.9005C19.6424 18.5099 19.6424 17.8768 19.2519 17.4863L17.1306 15.3649C16.74 14.9744 16.1069 14.9744 15.7163 15.3649L15.3628 15.7185C14.9723 16.109 14.9723 16.7422 15.3628 17.1327L17.4841 19.254C17.8746 19.6445 18.5078 19.6445 18.8983 19.254Z" fill="#88BFFF"/>
<path d="M22 12.2598V11.7598C22 11.2075 21.5523 10.7598 21 10.7598H18C17.4477 10.7598 17 11.2075 17 11.7598V12.2598C17 12.8121 17.4477 13.2598 18 13.2598H21C21.5523 13.2598 22 12.8121 22 12.2598Z" fill="#5096FF"/>
<path d="M19.256 5.11339L18.9024 4.75984C18.5119 4.36932 17.8787 4.36932 17.4882 4.75984L15.3669 6.88116C14.9764 7.27169 14.9764 7.90485 15.3669 8.29537L15.7204 8.64893C16.111 9.03945 16.7441 9.03945 17.1347 8.64893L19.256 6.52761C19.6465 6.13708 19.6465 5.50392 19.256 5.11339Z" fill="#5096FF"/>
</svg>
