<svg width="24" height="24" viewBox="0 0 24 24" fill="none" xmlns="http://www.w3.org/2000/svg">
<path d="M3.94118 8H18.0588C18.5765 8 19 8.45 19 9V17C19 19.21 17.3153 21 15.2353 21H6.76471C4.68471 21 3 19.21 3 17V9C3 8.45 3.42353 8 3.94118 8Z" fill="#C7C7C7"/>
<path d="M18.0001 10C19.6501 10 21.0001 11.35 21.0001 13C21.0001 14.65 19.6501 16 18.0001 16H16.1101V10H18.0001ZM18.0001 8H14.1101V18H18.0001C20.7601 18 23.0001 15.76 23.0001 13C23.0001 10.24 20.7601 8 18.0001 8Z" fill="#C7C7C7"/>
<rect x="14" y="2" width="2" height="4" rx="1" fill="#9C9188"/>
<rect x="10" y="2" width="2" height="4" rx="1" fill="#9C9188"/>
<rect x="6" y="2" width="2" height="4" rx="1" fill="#9C9188"/>
</svg>
