<svg width="24" height="24" viewBox="0 0 24 24" fill="none" xmlns="http://www.w3.org/2000/svg">
<path d="M17 10.0002H1V15.0002H17V10.0002Z" fill="#6B758F"/>
<path d="M19 10.0099H17L14 15.0099H23V13.0099C23 10.7999 21.21 10.0099 19 10.0099Z" fill="#6B758F"/>
<path d="M1 17.0099C1 17.5404 1.21071 18.0491 1.58578 18.4242C1.96086 18.7992 2.46957 19.0099 3 19.0099H21C21.5304 19.0099 22.0391 18.7992 22.4142 18.4242C22.7893 18.0491 23 17.5404 23 17.0099V15.0099H1V17.0099Z" fill="#E7ECEF"/>
<path d="M17 10.0099L10 6.00995H3C2.46957 6.00995 1.96086 6.22066 1.58578 6.59573C1.21071 6.97081 1 7.47952 1 8.00995V10.0099H17Z" fill="#6B758F"/>
<path d="M16.4362 9.68457L14.7041 8.68457L13.7041 10.4166L15.4362 11.4166L16.4362 9.68457Z" fill="white"/>
<path d="M12.9967 7.7002L11.2646 6.7002L10.2646 8.43225L11.9967 9.43225L12.9967 7.7002Z" fill="white"/>
</svg>
