<svg width="24" height="24" viewBox="0 0 24 24" fill="none" xmlns="http://www.w3.org/2000/svg">
<path d="M19 8H5C3.89543 8 3 8.89543 3 10V20C3 21.1046 3.89543 22 5 22H19C20.1046 22 21 21.1046 21 20V10C21 8.89543 20.1046 8 19 8Z" fill="#FFC738"/>
<path fill-rule="evenodd" clip-rule="evenodd" d="M12 3.25C11.0054 3.25 10.0516 3.6451 9.34833 4.34836C8.64508 5.05162 8.25 6.00543 8.25 7V8H5.75V7C5.75 5.34241 6.40845 3.7527 7.58056 2.58059C8.75266 1.40849 10.3424 0.75 12 0.75C13.6576 0.75 15.2473 1.4085 16.4194 2.58059C17.5915 3.75269 18.25 5.34239 18.25 7V8H15.75V7C15.75 6.00545 15.3549 5.05163 14.6516 4.34836C13.9484 3.64509 12.9946 3.25 12 3.25Z" fill="#737A83"/>
<path d="M12.25 13H11.75C11.1977 13 10.75 13.4477 10.75 14V16C10.75 16.5523 11.1977 17 11.75 17H12.25C12.8023 17 13.25 16.5523 13.25 16V14C13.25 13.4477 12.8023 13 12.25 13Z" fill="#737A83"/>
</svg>
