<svg width="24" height="24" viewBox="0 0 24 24" fill="none" xmlns="http://www.w3.org/2000/svg">
<path d="M12.0005 14.9997C13.6573 14.9997 15.0005 13.6565 15.0005 11.9997C15.0005 10.3428 13.6573 8.99969 12.0005 8.99969C10.3436 8.99969 9.00049 10.3428 9.00049 11.9997C9.00049 13.6565 10.3436 14.9997 12.0005 14.9997Z" fill="#F57C75"/>
<path fill-rule="evenodd" clip-rule="evenodd" d="M8.46911 8.45529C6.51679 10.416 6.51895 13.5839 8.4676 15.5326L7.05339 16.9468C4.32203 14.2154 4.32419 9.78344 7.05188 7.0441L8.46911 8.45529Z" fill="#F57C75"/>
<path fill-rule="evenodd" clip-rule="evenodd" d="M15.542 15.5441C17.4943 13.5834 17.4921 10.4154 15.5435 8.4668L16.9577 7.05258C19.6891 9.78394 19.6869 14.2159 16.9592 16.9553L15.542 15.5441Z" fill="#F57C75"/>
<path fill-rule="evenodd" clip-rule="evenodd" d="M5.63675 5.6377C2.11898 9.14647 2.11768 14.8426 5.63765 18.3626L4.22344 19.7768C-0.0765834 15.4768 -0.0778871 8.51291 4.22435 4.22168L5.63675 5.6377Z" fill="#F57C75"/>
<path fill-rule="evenodd" clip-rule="evenodd" d="M18.3643 18.3617C21.8821 14.8529 21.8834 9.15679 18.3634 5.63681L19.7776 4.2226C24.0776 8.52262 24.0789 15.4865 19.7767 19.7777L18.3643 18.3617Z" fill="#F57C75"/>
</svg>
