<svg width="24" height="24" viewBox="0 0 24 24" fill="none" xmlns="http://www.w3.org/2000/svg">
<path d="M15.5352 1.39265L22.6063 8.46372C22.7938 8.65126 22.8992 8.90559 22.8992 9.17081C22.8992 9.43602 22.7938 9.6904 22.6063 9.87793L14.121 18.3632L5.63574 9.87793L14.121 1.39265C14.3086 1.20512 14.5629 1.09976 14.8281 1.09976C15.0934 1.09976 15.3477 1.20512 15.5352 1.39265Z" fill="#6B758F"/>
<path d="M5.63867 9.87695L14.124 18.3622L9.88131 22.6049C9.69378 22.7924 9.4394 22.8978 9.17418 22.8978C8.90897 22.8978 8.65464 22.7924 8.4671 22.6049L1.39603 15.5338C1.20849 15.3463 1.10314 15.0919 1.10314 14.8267C1.10314 14.5615 1.20849 14.3071 1.39603 14.1196L5.63867 9.87695Z" fill="#F0F0F0"/>
</svg>
