<svg width="24" height="24" viewBox="0 0 24 24" fill="none" xmlns="http://www.w3.org/2000/svg">
<g clip-path="url(#clip0_1_385)">
<path d="M14.742 2.62772C14.2637 2.35158 13.6521 2.51545 13.376 2.99375C13.0998 3.47204 13.2637 4.08363 13.742 4.35977L19.8042 7.85977C20.2825 8.13591 20.8941 7.97204 21.1702 7.49375C21.4463 7.01545 21.2825 6.40386 20.8042 6.12772L14.742 2.62772Z" fill="#707070"/>
<path d="M20 6H4C2.89543 6 2 6.89543 2 8V18C2 19.1046 2.89543 20 4 20H20C21.1046 20 22 19.1046 22 18V8C22 6.89543 21.1046 6 20 6Z" fill="#C7CED5"/>
<path d="M12 11.5V10.5C12 10.2239 11.7761 10 11.5 10H5.5C5.22386 10 5 10.2239 5 10.5V11.5C5 11.7761 5.22386 12 5.5 12H11.5C11.7761 12 12 11.7761 12 11.5Z" fill="#E7ECEF"/>
<path d="M12 15.5V14.5C12 14.2239 11.7761 14 11.5 14H5.5C5.22386 14 5 14.2239 5 14.5V15.5C5 15.7761 5.22386 16 5.5 16H11.5C11.7761 16 12 15.7761 12 15.5Z" fill="#E7ECEF"/>
<path d="M17 16C18.6569 16 20 14.6569 20 13C20 11.3431 18.6569 10 17 10C15.3431 10 14 11.3431 14 13C14 14.6569 15.3431 16 17 16Z" fill="#707070"/>
</g>
<defs>
<clipPath id="clip0_1_385">
<rect width="24" height="24" fill="white"/>
</clipPath>
</defs>
</svg>
