<svg width="24" height="24" viewBox="0 0 24 24" fill="none" xmlns="http://www.w3.org/2000/svg">
<g clip-path="url(#clip0_1_219)">
<path d="M15 9L21 3V9H15Z" fill="#6B758F"/>
<path fill-rule="evenodd" clip-rule="evenodd" d="M12.0086 4.5C11.0235 4.49888 10.048 4.69207 9.13767 5.0685C8.22739 5.44494 7.4003 5.99724 6.70377 6.69377C6.00724 7.39031 5.45494 8.21739 5.0785 9.12766C4.70206 10.0379 4.50889 11.0135 4.51001 11.9986L4.51002 12C4.51002 12.9843 4.70404 13.959 5.08099 14.8683C5.45794 15.7776 6.0104 16.6037 6.70681 17.2993C7.40322 17.9949 8.22994 18.5464 9.13966 18.9223C10.0494 19.2982 11.0243 19.4911 12.0086 19.49H12.01C13.9965 19.49 15.9016 18.7009 17.3062 17.2962C18.7109 15.8916 19.5 13.9865 19.5 12H22C22 14.6495 20.9475 17.1905 19.074 19.064C17.2009 20.9371 14.6604 21.9896 12.0114 21.99M12.0102 2.00001C10.6968 1.99867 9.396 2.25633 8.18229 2.75826C6.96818 3.26034 5.86503 3.99699 4.93601 4.92601C4.00699 5.85502 3.27034 6.95816 2.76825 8.17228C2.26625 9.38617 2.00861 10.6871 2.01002 12.0007C2.01002 12.0005 2.01002 12.0002 2.01002 12L3.26002 12L2.01002 12.0014C2.01002 12.0012 2.01002 12.001 2.01002 12.0007C2.01011 13.3134 2.2689 14.6131 2.77156 15.8257C3.27432 17.0384 4.01118 18.1402 4.94005 19.068C5.86893 19.9959 6.97158 20.7315 8.18494 21.2328C9.39786 21.734 10.6976 21.9913 12.01 21.99M12.0102 2.00001C13.3222 1.99897 14.6215 2.25689 15.8336 2.75901C17.0462 3.26129 18.1476 3.99804 19.0747 4.92698L17.3053 6.69303C16.6106 5.99702 15.7854 5.44502 14.8769 5.06869C13.9684 4.69235 12.9945 4.4991 12.0112 4.50001L12.0086 4.5" fill="#6B758F"/>
</g>
<defs>
<clipPath id="clip0_1_219">
<rect width="24" height="24" fill="white"/>
</clipPath>
</defs>
</svg>
