<svg width="24" height="24" viewBox="0 0 24 24" fill="none" xmlns="http://www.w3.org/2000/svg">
<path d="M13.5936 5.1038L10.7637 7.93366L8.99597 6.16589L11.826 3.3359C12.998 2.16421 14.5876 1.50586 16.2449 1.50586C17.9021 1.50586 19.4915 2.16408 20.6636 3.33577C21.2452 3.91613 21.7066 4.60547 22.0215 5.36436C22.3366 6.12367 22.4988 6.9377 22.4988 7.7598C22.4988 8.5819 22.3366 9.3959 22.0215 10.1552C21.7064 10.9145 21.2446 11.6042 20.6626 12.1848L17.8322 15.0052L16.0675 13.2343L18.8971 10.4148C19.2461 10.0665 19.5235 9.65242 19.7124 9.19703C19.9015 8.74143 19.9988 8.25304 19.9988 7.7598C19.9988 7.26655 19.9015 6.77812 19.7124 6.32253C19.5234 5.86695 19.2463 5.45314 18.8971 5.10479L18.8961 5.1038C18.1929 4.40079 17.2392 4.00586 16.2449 4.00586C15.2506 4.00586 14.2968 4.40087 13.5936 5.1038Z" fill="#88BFFF"/>
<path fill-rule="evenodd" clip-rule="evenodd" d="M7.93367 10.7638L5.1038 13.5936C5.10376 13.5937 5.10385 13.5936 5.1038 13.5936C4.40088 14.2968 4.00586 15.2506 4.00586 16.2449C4.00586 17.2391 4.40069 18.1927 5.10354 18.8959C5.80674 19.5987 6.76055 19.9938 7.75479 19.9938C8.7491 19.9938 9.70269 19.5989 10.4059 18.896C10.4059 18.896 10.406 18.896 10.4059 18.896L13.2359 16.066L15.0037 17.8337L12.1737 20.6638C11.0016 21.8355 9.41206 22.4938 7.75479 22.4938C6.09752 22.4938 4.50809 21.8356 3.33604 20.6639C2.16434 19.4918 1.50586 17.9022 1.50586 16.2449C1.50586 14.5876 2.16407 12.9982 3.33577 11.8261L6.16591 8.996L7.93367 10.7638Z" fill="#88BFFF"/>
<path fill-rule="evenodd" clip-rule="evenodd" d="M15.3641 8.63565C15.8523 9.1238 15.8523 9.91526 15.3641 10.4034L10.4142 15.3534C9.926 15.8416 9.13455 15.8416 8.64639 15.3534C8.15824 14.8653 8.15823 14.0738 8.64639 13.5856L13.5964 8.63565C14.0845 8.14749 14.876 8.14749 15.3641 8.63565Z" fill="#88BFFF"/>
</svg>
